<?xml version="1.0" encoding="UTF-8"?>
<svg width="500px" height="200px" viewBox="0 0 500 200" version="1.1" xmlns="http://www.w3.org/2000/svg" xmlns:xlink="http://www.w3.org/1999/xlink" style="background: #FFFFFF;">
    <!-- Generator: Sketch 48.2 (47327) - http://www.bohemiancoding.com/sketch -->
    <title>devslogo</title>
    <desc>Created with Sketch.</desc>
    <defs></defs>
    <g id="500x200" stroke="none" stroke-width="1" fill="none" fill-rule="evenodd">
        <g id="devslogo">
            <g id="devs-logo" transform="translate(170.000000, 20.000000)">
                <circle id="Oval" fill="#2C2926" cx="80" cy="80" r="80"></circle>
                <path d="M41.6810345,41.6810345 L119.318966,119.318966" id="green" stroke="#28B464" stroke-width="5" stroke-linecap="square" transform="translate(80.500000, 80.500000) scale(1, -1) translate(-80.500000, -80.500000) "></path>
                <path d="M41.6810345,41.6810345 L119.318966,119.318966" id="red" stroke="#EB3C41" stroke-width="5" stroke-linecap="square"></path>
            </g>
            <g id="Zeichenfläche-1" transform="translate(225.000000, 149.000000)" fill="#FFFFFF" fill-rule="nonzero">
                <path d="M1.6359447,3.93317972 C1.65180292,4.35891959 1.81464403,4.76602237 2.09677419,5.08525346 C2.36825706,5.37967475 2.7540729,5.54190232 3.15437788,5.52995392 C3.41634636,5.53461822 3.67482736,5.46940147 3.90322581,5.34101382 C4.10706433,5.22726375 4.25654426,5.03626162 4.31797235,4.81105991 L6.03686636,4.81105991 C5.88646393,5.42014048 5.5319048,5.95929806 5.03225806,6.33870968 C4.50193238,6.70327746 3.86903542,6.88894876 3.22580645,6.86866359 C1.38248848,6.86866359 0.0529953917,5.70276498 0.0529953917,3.37096774 C0.0499686269,2.9138874 0.124769696,2.45962675 0.274193548,2.02764977 C0.404528834,1.64419353 0.614145076,1.29247788 0.889400922,0.995391705 C1.16313434,0.703953402 1.49958027,0.478605541 1.87327189,0.33640553 C2.27232742,0.1767053 2.69927495,0.0983663043 3.12903226,0.105990783 C4.13364055,0.105990783 4.82718894,0.423963134 5.34331797,1.05760369 C5.859447,1.69124424 6.09677419,2.65207373 6.09677419,3.93087558 L1.6359447,3.93317972 Z M4.40092166,2.86175115 C4.39734125,2.64931398 4.35518154,2.43929613 4.2764977,2.24193548 C4.21096617,2.0760511 4.11305595,1.92487772 3.98847926,1.79723502 C3.8661672,1.68273691 3.72195278,1.59417044 3.56451613,1.53686636 C3.40768037,1.48103711 3.2425121,1.45221057 3.07603687,1.4516129 C2.72041006,1.44811531 2.37711444,1.58180255 2.11751152,1.82488479 C1.85193658,2.10599771 1.69934603,2.47516838 1.68894009,2.86175115 L4.40092166,2.86175115 Z" id="e"></path>
                <path d="M6.64976959,9.77419355 L6.64976959,0.177419355 L8.28110599,0.177419355 L8.29493088,0.963133641 C8.67511521,0.357142857 9.28341014,0.140552995 10.0829493,0.140552995 C10.4462238,0.135683248 10.8057416,0.214524868 11.1336406,0.370967742 C11.4778631,0.529116496 11.7801391,0.76588625 12.016129,1.06221198 C12.2734603,1.38410924 12.468075,1.75145425 12.5898618,2.14516129 C12.7353768,2.61426755 12.8061354,3.10335724 12.7995392,3.59447005 C12.8039403,4.04608996 12.7442045,4.49604774 12.6221198,4.93087558 C12.5181225,5.31061409 12.3429786,5.66715694 12.1059908,5.98156682 C11.8882256,6.27360655 11.6048799,6.51038573 11.2788018,6.67281106 C10.9524589,6.83374147 10.5918498,6.91282242 10.2281106,6.90322581 C9.43548387,6.90322581 8.79953917,6.70046083 8.32258065,6.02995392 L8.32258065,9.77419355 L6.64976959,9.77419355 Z M9.80645161,5.45391705 C10.7803379,5.45391705 11.2680492,4.79262673 11.2695853,3.47004608 C11.2905073,2.97281299 11.1480775,2.48240114 10.8640553,2.07373272 C10.6287451,1.72985208 10.236921,1.52658791 9.8202765,1.53225806 C9.41742629,1.52897772 9.03692812,1.71708917 8.79493088,2.03917051 C8.50747627,2.4218864 8.36244079,2.89284433 8.38479263,3.37096774 C8.38479263,4.75806452 8.85867896,5.45238095 9.80645161,5.45391705 Z" id="p"></path>
                <path d="M18.7603687,1.58064516 C18.6760307,1.28046618 18.5175617,1.00631483 18.2995392,0.783410138 C18.0617706,0.555182204 17.7724961,0.387624333 17.4562212,0.294930876 C17.0476083,0.172495904 16.6223092,0.114960005 16.1958525,0.124423963 C15.7554952,0.115263592 15.3161559,0.170375058 14.8917051,0.288018433 C14.5723179,0.37548043 14.2763848,0.532891655 14.0253456,0.748847926 C13.8058364,0.951059782 13.6396309,1.20432534 13.5414747,1.48617512 C13.4344736,1.78173484 13.3791345,2.09350433 13.3778802,2.4078341 L14.9585253,2.4078341 C14.9824288,2.14198641 15.0952646,1.89196185 15.2788018,1.69815668 C15.5151591,1.49978499 15.8222881,1.40656425 16.1290323,1.44009217 C16.4016635,1.42657295 16.6729473,1.48623947 16.9147465,1.61290323 C17.0961937,1.70678223 17.2093567,1.89479326 17.2073733,2.09907834 C17.2225739,2.29123443 17.1349119,2.47707794 16.9769585,2.5875576 C16.7077352,2.72049697 16.4148518,2.79880805 16.1152074,2.81797235 C15.688172,2.87788018 15.2941628,2.94546851 14.9331797,3.02073733 C14.6089099,3.08400351 14.2974333,3.20080722 14.0115207,3.36635945 C13.7520563,3.52130697 13.5400643,3.74445648 13.3986175,4.01152074 C13.232776,4.35505974 13.1536631,4.73401051 13.1682028,5.11520737 C13.1500743,5.59353632 13.338009,6.05666108 13.6843318,6.38709677 C14.0268817,6.71121352 14.5645161,6.87403994 15.297235,6.87557604 C15.6908534,6.88435922 16.082342,6.81545724 16.4493088,6.67281106 C16.7555179,6.55061613 17.0286381,6.35801114 17.2465438,6.11059908 C17.2585237,6.29845721 17.2933424,6.48415661 17.3502304,6.66359447 L18.8940092,6.66359447 L18.8940092,2.65668203 C18.9012617,2.29345193 18.8562544,1.93106581 18.7603687,1.58064516 Z M17.0506912,4.8156682 C16.8882665,5.15956962 16.5981239,5.42656698 16.2419355,5.55990783 C16.0487492,5.63476079 15.8431179,5.67229047 15.6359447,5.67050691 C15.0875576,5.67050691 14.8133641,5.44009217 14.8133641,4.95391705 C14.7991913,4.70920414 14.9007151,4.47203085 15.0875576,4.31336406 C15.3911777,4.11879513 15.7343851,3.9944218 16.0921659,3.94930876 L16.4101382,3.88248848 C16.4101382,3.88248848 16.8709677,3.78341014 17.1866359,3.69815668 L17.1866359,4.27419355 C17.1840751,4.46280483 17.1375253,4.64821489 17.0506912,4.8156682 Z" id="Shape"></path>
                <path d="M24.0023041,5.9516129 C23.950818,6.07251031 23.8719379,6.17978716 23.7718894,6.26497696 C23.6401268,6.37958526 23.4955391,6.47855436 23.3410138,6.55990783 C22.9955186,6.71537186 22.6180074,6.78645137 22.2396313,6.76728111 C21.7985966,6.78398215 21.360658,6.68719136 20.9677419,6.48617512 C20.6225979,6.31687697 20.3225275,6.06813441 20.0921659,5.76036866 C19.8649122,5.44275999 19.7006571,5.08452763 19.6082949,4.70506912 C19.5070936,4.29654985 19.4567888,3.87708542 19.4585253,3.4562212 C19.4552423,2.99158204 19.5332213,2.52994663 19.6889401,2.0921659 C19.8194371,1.70989356 20.0185462,1.35462061 20.2764977,1.0437788 C20.5222124,0.759102246 20.8242644,0.528444379 21.1635945,0.366359447 C21.4845285,0.208750167 21.8383596,0.129770009 22.1958525,0.1359447 C22.9953917,0.1359447 23.5967742,0.32718894 23.9976959,0.97235023 L23.9976959,0.177419355 L25.6474654,0.177419355 L25.6474654,6.78110599 C25.6706787,7.21914889 25.6015982,7.65718198 25.4447005,8.06682028 C25.2894043,8.42010965 25.0581049,8.73480268 24.7672811,8.98847926 C24.4683861,9.24310384 24.122346,9.4364792 23.7488479,9.55760369 C23.3440732,9.6887577 22.920874,9.75410464 22.4953917,9.75115207 C22.0747162,9.7551494 21.6561436,9.69135209 21.2557604,9.56221198 C20.8983849,9.4499699 20.5659276,9.27005184 20.2764977,9.03225806 C20.003065,8.80196078 19.7829339,8.51500412 19.6313364,8.19124424 C19.4718848,7.8390438 19.3931612,7.45565998 19.4009217,7.06912442 L20.9677419,7.06912442 C20.9480121,7.41441691 21.09027,7.74919156 21.3525346,7.97465438 C21.6464667,8.20121993 22.0119065,8.31485781 22.3824885,8.29493088 C22.7977454,8.30742987 23.2046199,8.17641627 23.5345622,7.92396313 C23.8416122,7.68029111 24.0130273,7.304035 23.9953917,6.9124424 L24.0023041,5.9516129 Z M22.4423963,5.43548387 C22.8424021,5.44407277 23.2243629,5.26921959 23.4792627,4.96082949 C23.769943,4.59219452 23.9158127,4.13000046 23.8894009,3.66129032 C23.8894009,2.27880184 23.4070661,1.59139785 22.4423963,1.59907834 C21.4777266,1.60675883 20.9946237,2.25960061 20.9930876,3.55760369 C20.96695,4.04829491 21.1119093,4.53284965 21.4032258,4.92857143 C21.649092,5.25342817 22.0350346,5.44169284 22.4423963,5.43548387 Z" id="g"></path>
                <path d="M38.1105991,3.99539171 C38.0171885,3.76764255 37.8563954,3.57388677 37.6497696,3.44009217 C37.3628006,3.26788103 37.0523402,3.1382638 36.7281106,3.05529954 L35.3202765,2.65668203 C35.0503979,2.5882431 34.7897032,2.48767835 34.5437788,2.35714286 C34.3814609,2.28002149 34.2769662,2.11747418 34.2741935,1.93778802 C34.2645544,1.75346519 34.3727704,1.58327942 34.5437788,1.51382488 C34.7937255,1.41597342 35.0613106,1.37124512 35.3294931,1.38248848 C35.6192199,1.36841681 35.9056193,1.44932061 36.1451613,1.61290323 C36.3028785,1.73527018 36.4096073,1.91178316 36.4447005,2.10829493 L38.09447,2.10829493 C38.0595015,1.56732815 37.8108088,1.06248202 37.4032258,0.705069124 C36.9769585,0.331797235 36.3018433,0.1359447 35.3801843,0.1359447 C34.9491389,0.125511355 34.5187399,0.175142954 34.1013825,0.283410138 C33.7965878,0.361728967 33.5090438,0.496124536 33.2534562,0.679723502 C33.0567647,0.82794282 32.9032388,1.02601509 32.8087558,1.25345622 C32.7092373,1.47026417 32.6581299,1.70614465 32.6589862,1.94470046 C32.6557562,2.19257547 32.6931164,2.43930816 32.7695853,2.67511521 C32.8429614,2.90856706 32.9812104,3.11634014 33.1682028,3.27419355 C33.4365789,3.48961756 33.7386314,3.65932744 34.062212,3.7764977 C34.5546413,3.96165168 35.0607915,4.10802693 35.5760369,4.21428571 C35.8474316,4.2652015 36.1093454,4.35768739 36.3525346,4.48847926 C36.5253267,4.59771024 36.6230195,4.79398393 36.6059908,4.99769585 C36.6032483,5.21011886 36.4635269,5.39641416 36.2603687,5.45852535 C35.9976474,5.56402317 35.7162125,5.61497935 35.4331797,5.60829493 C35.1058415,5.61565998 34.7841316,5.52236411 34.5115207,5.34101382 C34.3224082,5.21365946 34.1966616,5.01162647 34.1658986,4.78571429 L32.4147465,4.78571429 C32.4304342,5.05488817 32.5043302,5.3174548 32.6313364,5.55529954 C32.7783103,5.83778181 32.9879592,6.08289758 33.2442396,6.2718894 C33.5327549,6.48302976 33.8576799,6.6392437 34.202765,6.73271889 C34.6115191,6.84191187 35.0331498,6.89539076 35.4562212,6.89170507 C36.3963134,6.89170507 37.1059908,6.70506912 37.5852535,6.32488479 C38.0348633,5.98992661 38.2928566,5.45674032 38.2764977,4.89631336 C38.2846017,4.58772521 38.228093,4.28085186 38.1105991,3.99539171 Z" id="Shape"></path>
                <path d="M27.6751152,3.93317972 C27.6909734,4.35891959 27.8538145,4.76602237 28.1359447,5.08525346 C28.4084871,5.37816154 28.7935836,5.54008666 29.1935484,5.52995392 C29.4548162,5.5348786 29.7126221,5.46963141 29.9400922,5.34101382 C30.1451523,5.22814379 30.2956463,5.0369083 30.3571429,4.81105991 L32.0760369,4.81105991 C31.9256344,5.42014048 31.5710753,5.95929806 31.0714286,6.33870968 C30.5442193,6.70302481 29.9148084,6.8902342 29.2741935,6.87327189 C27.4308756,6.87327189 26.1013825,5.70737327 26.1013825,3.37557604 C26.0942539,2.91894384 26.1659663,2.4645053 26.3133641,2.03225806 C26.443763,1.64934255 26.6524978,1.29778924 26.9262673,1 C27.2008712,0.708519759 27.5380724,0.483193729 27.9124424,0.341013825 C28.3114979,0.181313595 28.7384455,0.102974599 29.1682028,0.110599078 C30.1728111,0.110599078 30.8663594,0.428571429 31.3824885,1.06221198 C31.8986175,1.69585253 32.1359447,2.65668203 32.1359447,3.93548387 L27.6751152,3.93317972 Z M30.4400922,2.86175115 C30.4353725,2.64943845 30.393253,2.43962099 30.3156682,2.24193548 C30.2474022,2.07527554 30.1463204,1.92404451 30.0184332,1.79723502 C29.8961211,1.68273691 29.7519067,1.59417044 29.59447,1.53686636 C29.437578,1.48125138 29.2724464,1.45243126 29.1059908,1.4516129 C28.750364,1.44811531 28.4070684,1.58180255 28.1474654,1.82488479 C27.8818905,2.10599771 27.7293,2.47516838 27.718894,2.86175115 L30.4400922,2.86175115 Z" id="e-2"></path>
                <path d="M41.9930876,6.32488479 C41.9271985,6.44119225 41.8264547,6.53387658 41.7050691,6.58986175 C41.5798591,6.64608966 41.4436715,6.67364208 41.3064516,6.67050691 C41.1518834,6.67416007 40.9986637,6.64098879 40.859447,6.57373272 C40.7386713,6.50856551 40.6339729,6.41724957 40.5529954,6.30645161 C40.4678313,6.18863744 40.4038912,6.05685846 40.3640553,5.91705069 C40.3216345,5.7671548 40.3006885,5.6119998 40.3018433,5.4562212 C40.3013404,5.30729754 40.3222929,5.15907801 40.3640553,5.01612903 C40.4044521,4.88079748 40.4684128,4.75365607 40.5529954,4.640553 C40.634112,4.53283031 40.7369453,4.44334178 40.8548387,4.37788018 C40.9908577,4.31087253 41.1410371,4.27767499 41.2926267,4.28110599 C41.4249265,4.2802612 41.5556975,4.30940896 41.6751152,4.36635945 C41.7936709,4.42002444 41.8938308,4.50736388 41.9631336,4.61751152 L41.9631336,3.48847926 L42.5852535,3.48847926 L42.5852535,6.61520737 L41.9953917,6.61520737 L41.9953917,6.32488479 L41.9930876,6.32488479 Z M41.9654378,5.20737327 C41.951733,5.12554566 41.9219759,5.04723757 41.8778802,4.97695853 C41.8357388,4.91174829 41.7789252,4.85730194 41.7119816,4.81797235 C41.6349688,4.77395978 41.5471641,4.75240772 41.4585253,4.75576037 C41.3684579,4.75275141 41.2792635,4.77425362 41.2004608,4.81797235 C41.1315008,4.85643728 41.0735813,4.91197653 41.0322581,4.97926267 C40.9873203,5.0495886 40.9560517,5.12776019 40.9400922,5.20967742 C40.9213012,5.29829806 40.912032,5.38867267 40.9124424,5.47926267 C40.9121586,5.56692788 40.9222127,5.65432078 40.9423963,5.73963134 C40.9616198,5.82166368 40.9951596,5.8996631 41.0414747,5.97004608 C41.0844144,6.03803248 41.1428445,6.09488335 41.2119816,6.1359447 C41.2861617,6.18091728 41.3718249,6.20333382 41.4585253,6.20046083 C41.5478896,6.20375567 41.6364189,6.18222151 41.7142857,6.13824885 C41.7827834,6.09974581 41.8393771,6.04315203 41.8778802,5.97465438 C41.9206348,5.90371545 41.9502921,5.82566996 41.9654378,5.74423963 C41.9839913,5.65558191 41.9932579,5.56523249 41.9930876,5.47465438 C41.9933345,5.3848343 41.9840662,5.29524073 41.9654378,5.20737327 Z" id="Shape"></path>
                <path d="M43.7258065,6.07142857 C43.8372125,6.16782327 43.9820037,6.21663857 44.1290323,6.20737327 C44.2444193,6.20969252 44.357765,6.17673383 44.4539171,6.11290323 C44.5299221,6.06738104 44.5883671,5.9975718 44.6198157,5.91474654 L45.1612903,5.91474654 C45.0994624,6.14913155 44.9576411,6.35452788 44.7603687,6.49539171 C44.5632834,6.61666493 44.3349879,6.67754373 44.1036866,6.67050691 C43.9384292,6.67328535 43.7741723,6.64434484 43.6198157,6.58525346 C43.4838549,6.53578256 43.3603784,6.45713513 43.2580645,6.35483871 C43.1568351,6.24549962 43.078494,6.11702025 43.0276498,5.97695853 C42.9727392,5.82240666 42.9454416,5.65940087 42.9470046,5.49539171 C42.9458443,5.33421945 42.9739496,5.17417506 43.0299539,5.02304147 C43.1328473,4.73271029 43.3526185,4.49873333 43.6359447,4.37788018 C43.7852915,4.31470777 43.9461546,4.28331985 44.1082949,4.28571429 C44.2821818,4.28170804 44.4544755,4.31964427 44.6105991,4.39631336 C44.7496712,4.46758729 44.8703381,4.57011469 44.9631336,4.69585253 C45.0565399,4.82439828 45.1238597,4.96999703 45.1612903,5.12442396 C45.2038177,5.28902615 45.2186134,5.45956541 45.2050691,5.62903226 L43.5737327,5.62903226 C43.5663746,5.79046316 43.6207482,5.94864079 43.7258065,6.07142857 Z M44.4170507,4.88018433 C44.3268864,4.79278519 44.2035332,4.74831092 44.078341,4.75806452 C43.9932511,4.75454721 43.908597,4.77195271 43.8317972,4.80875576 C43.7697871,4.83720418 43.7153285,4.879824 43.6728111,4.93317972 C43.6352811,4.97954615 43.6071101,5.03275799 43.5898618,5.08986175 C43.5749868,5.13857278 43.5657104,5.18882003 43.562212,5.23963134 L44.5737327,5.23963134 C44.5580548,5.10906867 44.5079577,4.98501862 44.4285714,4.88018433 L44.4170507,4.88018433 Z" id="Shape"></path>
                <polygon id="Shape" points="46.1336406 6.61520737 45.359447 4.35023041 46.0115207 4.35023041 46.4884793 5.89631336 46.4884793 5.89631336 46.9654378 4.35023041 47.5829493 4.35023041 46.8156682 6.61520737"></polygon>
                <path d="M48.3732719,6.05069124 C48.4004879,6.09784095 48.4373991,6.13867888 48.4815668,6.17050691 C48.5270933,6.20155595 48.5778196,6.22418769 48.6313364,6.23732719 C48.6891538,6.25303728 48.7488435,6.26078919 48.8087558,6.26036866 C48.8553113,6.26042431 48.9017122,6.25501087 48.9470046,6.24423963 C48.9932447,6.23579956 49.0376777,6.2194295 49.078341,6.19585253 C49.1174769,6.17441123 49.1513276,6.14449664 49.1774194,6.10829493 C49.2048788,6.06756541 49.2186033,6.01912625 49.2165899,5.97004608 C49.2165899,5.87788018 49.1543779,5.80645161 49.0299539,5.76036866 C48.8604037,5.70222686 48.6872205,5.65527497 48.5115207,5.61981567 C48.421659,5.59907834 48.3317972,5.57603687 48.2465438,5.5483871 C48.1648147,5.52280613 48.0872087,5.48555524 48.016129,5.43778802 C47.950038,5.3940297 47.8948607,5.33569941 47.8548387,5.26728111 C47.8105422,5.1912228 47.7889538,5.10406968 47.7926267,5.01612903 C47.7884811,4.89085455 47.8179159,4.76675096 47.8778802,4.65668203 C47.934494,4.56203965 48.0136526,4.48288109 48.1082949,4.42626728 C48.2063215,4.37093363 48.3130794,4.33275017 48.4239631,4.31336406 C48.5426137,4.29218623 48.6628847,4.28139268 48.7834101,4.28110599 C48.9033048,4.28085171 49.022932,4.29242854 49.140553,4.3156682 C49.2495098,4.33662889 49.3539873,4.37639271 49.4493088,4.43317972 C49.5428931,4.49113977 49.6217635,4.57001013 49.6797235,4.66359447 C49.7425115,4.76936219 49.7788693,4.88871077 49.7857143,5.01152074 L49.1958525,5.01152074 C49.1982044,4.9120798 49.1460663,4.81929182 49.0599078,4.76958525 C48.9698981,4.72457063 48.8701885,4.70241296 48.7695853,4.70506912 L48.656682,4.70506912 C48.6179616,4.70908711 48.5799741,4.71839017 48.5437788,4.73271889 C48.5115836,4.74871519 48.4826677,4.77059749 48.4585253,4.79723502 C48.4038836,4.874536 48.4157677,4.98050203 48.4861751,5.0437788 C48.5323159,5.08345554 48.5865807,5.11255404 48.6451613,5.12903226 C48.720693,5.15361222 48.7976374,5.17361777 48.875576,5.18894009 L49.1336406,5.24654378 C49.2232545,5.2662313 49.3117145,5.29084625 49.3986175,5.3202765 C49.4801606,5.34836491 49.5576357,5.38710248 49.6290323,5.43548387 C49.6949373,5.48327057 49.7499184,5.54453527 49.7903226,5.61520737 C49.8339779,5.696534 49.8554355,5.78792711 49.8525346,5.88018433 C49.8570466,6.01119418 49.8259934,6.1409804 49.7626728,6.25576037 C49.7053915,6.35297353 49.6265631,6.43574336 49.5322581,6.49769585 C49.4313146,6.5606391 49.3196076,6.60438451 49.202765,6.62672811 C49.0775984,6.65176577 48.9502258,6.66411704 48.8225806,6.66359447 C48.6932714,6.66461793 48.5642386,6.65148285 48.437788,6.62442396 C48.3192496,6.60170931 48.2059612,6.55717525 48.1036866,6.49308756 C48.005133,6.4325964 47.9222423,6.34970568 47.8617512,6.25115207 C47.7951852,6.13551423 47.7602204,6.00439603 47.7603687,5.87096774 L48.3502304,5.87096774 C48.3410875,5.93185305 48.3490655,5.99408149 48.3732719,6.05069124 Z" id="Shape"></path>
            </g>
        </g>
    </g>
</svg>