<?xml version="1.0" encoding="utf-8"?>
<!-- Generator: Adobe Illustrator 20.0.0, SVG Export Plug-In . SVG Version: 6.00 Build 0)  -->
<svg version="1.1" id="Ebene_1" xmlns="http://www.w3.org/2000/svg" xmlns:xlink="http://www.w3.org/1999/xlink" x="0px" y="0px"
	 width="595.3px" height="419.5px" viewBox="0 0 595.3 419.5" style="enable-background:new 0 0 595.3 419.5;" xml:space="preserve"
	>
<style type="text/css">
	.st0{fill:#D51317;}
	.st1{fill:#2C2926;}
</style>
<path id="e_48_" class="st0" d="M75,197.2c0.3,6.2,2.6,11.1,5.9,14.7c3.3,3.6,8,5.5,13.4,5.5c3.6,0,6.7-0.8,9.5-2.4
	c2.7-1.6,4.5-3.8,5.3-6.7h21.8c-2.6,8.4-6.4,14.9-12.8,19.4c-6.4,4.5-14,6.8-22.8,6.8c-23.5,0-40.3-14.8-40.3-44.4
	c0-6.3,0.9-12,2.7-17.1c1.8-5.1,4.4-9.4,7.8-13.1c3.4-3.6,7.6-6.4,12.5-8.4c4.9-1.9,9.6-2.9,15.9-2.9c12.8,0,21.6,4,28.1,12.1
	c6.5,8.1,9.6,20.2,9.6,36.5H75z M110.2,183.6c-0.1-3-0.6-5.6-1.6-7.9c-1-2.3-2.2-4.1-3.8-5.6c-1.6-1.5-3.4-2.6-5.4-3.3
	c-2-0.7-4.1-1.1-6.2-1.1c-4.4,0-9,1.6-12.2,4.7c-3.2,3.1-5,7.5-5.5,13.2H110.2z"/>
<path id="p_23_" class="st1" d="M138.6,271.3V149.5h20.7l0.2,10c4.8-7.7,12.5-10.4,22.7-10.4c5.1,0,9,1,13.3,3
	c4.4,2,8.1,4.9,11.2,8.6c3.1,3.8,5.5,8.3,7.3,13.8c1.8,5.4,2.7,11.5,2.7,18.4c0,6.2-0.7,11.8-2.2,17c-1.5,5.1-3.7,9.6-6.5,13.3
	c-2.9,3.8-6.4,6.7-10.5,8.7c-4.1,2-8,3.1-13.3,3.1c-10.1,0-18.1-2.6-24.2-11.1v47.6H138.6z M178.7,216.5c12.4,0,18.6-8.4,18.6-25.2
	c0-7.3-1.7-13.2-5.1-17.8c-3.4-4.6-7.8-6.9-13.3-6.9c-5.2,0-9.5,2.2-13,6.5c-3.5,4.3-5.2,9.9-5.2,16.9
	C160.7,207.7,166.7,216.5,178.7,216.5z"/>
<path class="st1" d="M292.4,167.3c-1.2-4-3.1-7.4-5.8-10.1c-2.7-2.7-6.2-4.8-10.7-6.2c-4.5-1.4-9.6-2.2-16-2.2
	c-6.5,0-12,0.7-16.6,2.1c-4.5,1.4-8.2,3.3-11,5.9c-2.8,2.5-4.9,5.8-6.1,9.4c-1.3,3.5-2,6.8-2.1,11.8h20c0.6-4,1.9-6.8,4.1-9
	c2.2-2.2,5.7-3.4,10.7-3.4c4.2,0,7.5,0.7,10,2.2c2.5,1.5,3.7,3.5,3.7,6.2c0,2.9-0.9,4.9-2.8,6.2c-1.9,1.3-5.5,2.3-10.9,3.1
	c-5.4,0.8-10.4,1.6-15,2.6c-4.6,0.9-8.5,2.4-11.8,4.4c-3.3,2-5.9,4.7-7.8,8.2c-1.9,3.5-2.8,8.1-2.8,14c0,6.6,2.2,12,6.5,16.2
	c4.4,4.1,11.2,6.2,20.6,6.2c5.5,0,10.4-0.9,14.6-2.6c4.2-1.7,7.6-4.3,10.1-7.1c0.2,2.8,0.7,5,1.3,7H294v-51
	C294,175.9,293.6,171.4,292.4,167.3z M270.6,208.4c-1.1,2.2-2.4,4-4.1,5.6c-1.7,1.6-3.8,2.9-6.1,3.8c-2.4,0.9-4.9,1.4-7.7,1.4
	c-7,0-10.4-3-10.4-9.1c0-3.5,1.2-6.2,3.5-8.1c2.3-1.9,6.6-3.4,12.8-4.6c1.5-0.3,2.8-0.6,4-0.8l0,0c0,0,6-1.3,9.9-2.3l-0.1,7.3
	C272.2,204,271.6,206.3,270.6,208.4z"/>
<path id="g_23_" class="st1" d="M358.9,222.8c-0.7,1.7-1.7,2.9-2.9,4c-1.5,1.2-3.3,2.6-5.5,3.7c-4,2-8.7,2.7-14,2.7
	c-6.7,0-11.6-1.2-16.2-3.6c-4.6-2.4-8.3-5.5-11.1-9.4c-2.8-3.9-4.9-8.3-6.1-13.4c-1.3-5.1-1.9-10.3-1.9-15.6
	c0-6.3,0.9-12.1,2.8-17.3c1.9-5.2,4.4-9.7,7.6-13.4c3.2-3.7,7-6.6,11.3-8.6c4.3-2,8.1-3.1,13.1-3.1c10.2,0,17.8,2.4,22.9,10.6v-9.9
	h21v83.8c0,6.2-0.5,11.6-2.6,16.3c-2.1,4.7-5,8.6-8.6,11.8c-3.6,3.1-8,5.6-12.9,7.2c-5,1.7-10.3,2.5-15.9,2.5
	c-5.6,0-10.9-0.8-15.7-2.4c-4.9-1.6-9-3.9-12.5-6.8c-3.5-2.9-6.2-6.5-8.2-10.7c-2-4.2-3-8.9-3-14.2h20c0,5,1.6,8.8,4.9,11.5
	c3.3,2.7,7.6,4.1,13,4.1c5.7,0,10.6-1.6,14.6-4.7c4-3.1,6-7.4,6-12.8V222.8z M339.1,216.3c5.3,0,9.7-2,13.2-6
	c3.5-4,5.2-9.5,5.2-16.5c0-17.5-6.1-26.2-18.4-26.2c-12.3,0-18.4,8.3-18.4,24.9c0,7.3,1.7,13.1,5.2,17.4
	C329.4,214.1,333.8,216.3,339.1,216.3z"/>
<g id="s_23_">
	<path class="st1" d="M538,198c-1.3-2.8-3-5.2-5.9-7c-2.9-1.9-6.8-3.5-11.7-4.9c-4.9-1.4-10.8-3.1-17.9-5.1
		c-4.3-1.2-7.6-2.5-9.9-3.8c-2.3-1.3-3.4-3.1-3.4-5.3c0-2.5,1.1-4.3,3.4-5.4c2.3-1,5.6-1.6,10-1.6c4.6,0,8.1,1,10.4,2.8
		c1.8,1.4,3.1,3.3,3.8,6.3h20.9c-0.9-8-3.8-13.5-8.7-17.8c-5.4-4.7-14-7.2-25.7-7.2c-6.4,0-11.8,0.6-16.2,1.9c-4.4,1.3-8,2.9-10.8,5
		c-2.8,2.1-4.4,4.5-5.6,7.3c-1.3,2.8-1.9,5.7-1.9,8.8c0,3.4,0.5,6.5,1.4,9.3c0.9,2.8,2.3,5.3,5.1,7.6c2.7,2.3,6.5,4.4,11.3,6.4
		c4.9,1.9,11.3,3.8,19.2,5.6c4.4,1,7.7,2.2,9.9,3.5c2.2,1.3,3.2,3.5,3.2,6.5c0,2.7-1.5,4.6-4.4,5.9c-2.9,1.3-6.4,1.9-10.5,1.9
		c-4.9,0-8.8-1.3-11.8-3.4c-2.4-1.7-3.9-4-4.4-7h-22.2c0.3,4,1.2,6.9,2.8,9.8c1.8,3.5,4.4,6.6,7.8,9.1c3.4,2.5,7.4,4.5,12.2,5.8
		c4.7,1.3,10.1,2,15.9,2c11.9,0,20.9-2.4,27-7.2c6.1-4.8,8.7-10.8,8.7-18.1C539.9,204.6,539.3,200.8,538,198z"/>
</g>
<path id="e_47_" class="st1" d="M405.5,197.2c0.3,6.2,2.6,11.1,5.9,14.7c3.3,3.6,8,5.5,13.4,5.5c3.6,0,6.7-0.8,9.5-2.4
	c2.7-1.6,4.5-3.8,5.3-6.7h21.8c-2.6,8.4-6.4,14.9-12.8,19.4c-6.4,4.5-14,6.8-22.8,6.8c-23.5,0-40.3-14.8-40.3-44.4
	c0-6.3,0.9-12,2.7-17.1c1.8-5.1,4.4-9.4,7.8-13.1c3.4-3.6,7.6-6.4,12.5-8.4c4.9-1.9,9.6-2.9,15.9-2.9c12.8,0,21.6,4,28.1,12.1
	c6.5,8.1,9.6,20.2,9.6,36.5H405.5z M440.8,183.6c-0.1-3-0.6-5.6-1.6-7.9c-1-2.3-2.2-4.1-3.8-5.6c-1.6-1.5-3.4-2.6-5.4-3.3
	c-2-0.7-4.1-1.1-6.2-1.1c-4.4,0-9,1.6-12.2,4.7c-3.2,3.1-5,7.5-5.5,13.2H440.8z"/>
</svg>
