<svg id="Ebene_1" data-name="Ebene 1" xmlns="http://www.w3.org/2000/svg" viewBox="0 0 595.28 419.53"><defs><style>.cls-1{fill:#fff;}</style></defs><title>2Zeichenfläche 2</title><path id="e" class="cls-1" d="M75,197.2a23.34,23.34,0,0,0,5.87,14.75c3.3,3.65,8,5.47,13.42,5.47a18.44,18.44,0,0,0,9.48-2.4A10.9,10.9,0,0,0,109,208.3h21.82c-2.57,8.4-6.39,14.86-12.76,19.39s-14,6.79-22.82,6.79c-23.5,0-40.27-14.8-40.27-44.41A51.11,51.11,0,0,1,57.69,173a36.72,36.72,0,0,1,7.8-13.09A33.74,33.74,0,0,1,78,151.55a40.8,40.8,0,0,1,15.94-2.9c12.75,0,21.57,4,28.12,12.1s9.57,20.21,9.57,36.45Zm35.23-13.59a22.47,22.47,0,0,0-1.59-7.87,16.49,16.49,0,0,0-3.78-5.63,15.07,15.07,0,0,0-5.37-3.31,18.39,18.39,0,0,0-6.21-1.08,17.5,17.5,0,0,0-12.16,4.72q-4.78,4.72-5.45,13.17Z"/><path id="p" class="cls-1" d="M138.63,271.35V149.52h20.71l.17,10c4.8-7.7,12.54-10.44,22.7-10.44a30.09,30.09,0,0,1,13.34,3,31,31,0,0,1,11.18,8.62A41.84,41.84,0,0,1,214,174.42a59.19,59.19,0,0,1,2.65,18.39,60.76,60.76,0,0,1-2.24,17,40.13,40.13,0,0,1-6.54,13.34,29.57,29.57,0,0,1-10.52,8.7A28.13,28.13,0,0,1,184,234.9c-10.05,0-18.12-2.59-24.19-11.1v47.55Zm40.1-54.84q18.55,0,18.56-25.19,0-10.94-5.14-17.81a15.85,15.85,0,0,0-13.26-6.88,16.08,16.08,0,0,0-13,6.46q-5.22,6.46-5.22,16.9Q160.66,216.5,178.72,216.5Z"/><path class="cls-1" d="M292.38,167.33a23.54,23.54,0,0,0-5.78-10.11A26.11,26.11,0,0,0,275.87,151a51.62,51.62,0,0,0-16-2.15,57.35,57.35,0,0,0-16.56,2.07,28.67,28.67,0,0,0-11,5.88,23,23,0,0,0-6.13,9.35A34.5,34.5,0,0,0,224.12,178h20a15.19,15.19,0,0,1,4.06-9c2.15-2.21,5.72-3.43,10.69-3.43,4.2,0,7.54.69,10,2.18a6.88,6.88,0,0,1,3.73,6.18c0,2.87-.94,4.93-2.82,6.2s-5.52,2.29-10.94,3.06-10.41,1.63-15,2.56a37.52,37.52,0,0,0-11.85,4.39,21,21,0,0,0-7.79,8.2q-2.82,5.22-2.82,14,0,9.94,6.54,16.15t20.63,6.21a38.42,38.42,0,0,0,14.58-2.57A27.13,27.13,0,0,0,273.33,225a29.5,29.5,0,0,0,1.33,7H294V181A47.66,47.66,0,0,0,292.38,167.33ZM270.6,208.43a18.78,18.78,0,0,1-10.27,9.44,20.76,20.76,0,0,1-7.7,1.41q-10.44,0-10.44-9.11,0-5.3,3.48-8.12t12.76-4.64q2.21-.43,4-.83h0s6-1.28,9.86-2.34l-.14,7.32A15.5,15.5,0,0,1,270.6,208.43Z"/><path id="g" class="cls-1" d="M358.91,222.84a10.38,10.38,0,0,1-2.91,4,27.8,27.8,0,0,1-5.46,3.74c-4,2-8.7,2.65-14,2.65-6.74,0-11.57-1.19-16.15-3.56a31.22,31.22,0,0,1-11.1-9.36,38.26,38.26,0,0,1-6.13-13.42,63.92,63.92,0,0,1-1.91-15.57A51,51,0,0,1,304.07,174a41.75,41.75,0,0,1,7.62-13.42A34.15,34.15,0,0,1,323,151.92,28.55,28.55,0,0,1,336,148.86c10.16,0,17.78,2.43,22.87,10.6v-9.94h21v83.84c0,6.18-.46,11.62-2.56,16.32a33.21,33.21,0,0,1-8.62,11.76,37.82,37.82,0,0,1-12.92,7.21,52.45,52.45,0,0,1-31.65.08,37.38,37.38,0,0,1-12.51-6.79,31.3,31.3,0,0,1-8.2-10.69,32.89,32.89,0,0,1-3-14.25h20q0,7.46,4.89,11.52t13,4.06a22.77,22.77,0,0,0,14.58-4.72,15.5,15.5,0,0,0,6-12.84Zm-19.8-6.54a16.65,16.65,0,0,0,13.17-6q5.22-6,5.22-16.49,0-26.18-18.39-26.18t-18.39,24.85q0,10.94,5.22,17.4A16.24,16.24,0,0,0,339.11,216.3Z"/><g id="s"><path class="cls-1" d="M538,198a15.34,15.34,0,0,0-5.88-7,44.32,44.32,0,0,0-11.68-4.89L502.56,181a43.64,43.64,0,0,1-9.86-3.81q-3.4-2-3.4-5.3a5.49,5.49,0,0,1,3.4-5.39q3.39-1.57,10-1.57c4.64,0,8.09,1,10.36,2.75a10.42,10.42,0,0,1,3.8,6.32h20.94c-.88-8-3.8-13.48-8.75-17.83-5.41-4.75-14-7.22-25.68-7.22a59.74,59.74,0,0,0-16.24,1.86,32.57,32.57,0,0,0-10.77,5,18.09,18.09,0,0,0-5.63,7.28,20.73,20.73,0,0,0-1.91,8.78,28.66,28.66,0,0,0,1.41,9.28,16.48,16.48,0,0,0,5.05,7.62,40.38,40.38,0,0,0,11.35,6.38,129.41,129.41,0,0,0,19.22,5.55,33.68,33.68,0,0,1,9.86,3.48q3.23,2,3.23,6.46,0,4-4.39,5.88a26.33,26.33,0,0,1-10.52,1.91,20.46,20.46,0,0,1-11.85-3.4,10.14,10.14,0,0,1-4.38-7H465.58a24.14,24.14,0,0,0,2.76,9.78,26.49,26.49,0,0,0,7.79,9.07,37.16,37.16,0,0,0,12.18,5.78,59.08,59.08,0,0,0,15.91,2q17.89,0,27-7.19a21.81,21.81,0,0,0,8.7-18.14Q539.92,202.21,538,198Z"/></g><path id="e-2" data-name="e" class="cls-1" d="M405.54,197.2a23.34,23.34,0,0,0,5.87,14.75c3.3,3.65,8,5.47,13.42,5.47a18.44,18.44,0,0,0,9.48-2.4,10.9,10.9,0,0,0,5.29-6.71h21.82c-2.57,8.4-6.39,14.86-12.76,19.39s-14,6.79-22.82,6.79c-23.5,0-40.27-14.8-40.27-44.41A51.11,51.11,0,0,1,388.25,173a36.72,36.72,0,0,1,7.8-13.09,33.74,33.74,0,0,1,12.5-8.37,40.8,40.8,0,0,1,15.94-2.9c12.75,0,21.57,4,28.12,12.1s9.57,20.21,9.57,36.45Zm35.23-13.59a22.47,22.47,0,0,0-1.59-7.87,16.49,16.49,0,0,0-3.78-5.63A15.07,15.07,0,0,0,430,166.8a18.39,18.39,0,0,0-6.21-1.08,17.5,17.5,0,0,0-12.16,4.72q-4.78,4.72-5.45,13.17Z"/></svg>