<svg id="Ebene_1" data-name="Ebene 1" xmlns="http://www.w3.org/2000/svg" xmlns:xlink="http://www.w3.org/1999/xlink" viewBox="0 0 369.95 258.87"><defs><style>.cls-1{fill:none;}.cls-2{fill:#1e3545;}.cls-3{clip-path:url(#clip-path);}.cls-4{fill:#405c76;}.cls-5{clip-path:url(#clip-path-2);}.cls-13,.cls-15,.cls-6{fill:#4db7af;}.cls-7{fill:#99d2cb;}.cls-19,.cls-8{fill:#fff;}.cls-9{fill:#9ab6c7;}.cls-10,.cls-16{fill:#728197;}.cls-11{fill:#bcc0cc;}.cls-12{fill:#2b506b;}.cls-13,.cls-16{font-size:15.73px;}.cls-13,.cls-16,.cls-19{font-family:HelveticaNeue, Helvetica Neue;}.cls-14{letter-spacing:-0.02em;}.cls-15,.cls-17{font-size:36.7px;font-family:HelveticaNeue-Thin, Helvetica Neue;font-weight:200;}.cls-17{fill:#7d899e;}.cls-18{fill:#bacbd7;}.cls-19{font-size:20.97px;}.cls-20{letter-spacing:-0.02em;}.cls-21{letter-spacing:0em;}.cls-22{fill:#d8e1e9;}</style><clipPath id="clip-path"><polygon class="cls-1" points="0 23.56 0 245.9 369.95 245.31 369.95 22.97 0 23.56"/></clipPath><clipPath id="clip-path-2"><rect class="cls-1" width="369.95" height="261.26"/></clipPath></defs><title>ePagesInNumbers</title><polygon class="cls-2" points="0 23.56 0 245.9 369.95 245.31 369.95 22.97 0 23.56"/><g class="cls-3"><path class="cls-4" d="M35.92,91.44A51.64,51.64,0,1,0-15.71,39.81,51.63,51.63,0,0,0,35.92,91.44"/></g><g class="cls-5"><path class="cls-6" d="M243.4,69.11a13.09,13.09,0,0,0,5,8.78,19.59,19.59,0,0,0,6.9,3.4l3.25-7.37Z"/><path class="cls-6" d="M240.58,92.53A13.13,13.13,0,0,1,247.34,85a19.75,19.75,0,0,1,7.46-1.89L256.44,91Z"/></g><rect class="cls-6" x="295.8" y="138.77" width="3.53" height="33.35"/><rect class="cls-6" x="286.2" y="138.77" width="3.53" height="33.35"/><g class="cls-5"><path class="cls-7" d="M258.24,69.51c3.43-5.64,11.37-12.66,29.56-7.54a33,33,0,0,1,5.61,2.13l4.16-14,3.23.95-4.24,14.29,10-10.72L309,56.89l-9.83,10.55L312.35,62l1.29,3.09-12.2,5c5.57,6.33,6.44,14,7,17.91.83,5.93,1.21,14.77,1.21,14.77l24.78-.54c-.76,26.4-12.92,42-41.49,42-23.57,0-39.53-19.76-39.53-49.69,0-11.22,1.43-19.46,4.85-25.1"/><path class="cls-8" d="M261.27,85.71a15.39,15.39,0,1,0,15.39-15.3,15.34,15.34,0,0,0-15.39,15.3"/><path class="cls-2" d="M274.09,77.7a3.1,3.1,0,1,1-3.1-3.08,3.09,3.09,0,0,1,3.1,3.08"/><path class="cls-9" d="M202.71,158c0,16.24-10.75,29.4-24,29.4s-24-13.16-24-29.4,10.75-29.4,24-29.4,24,13.16,24,29.4"/><path class="cls-8" d="M195,163c0,13.48-7.32,24.4-16.35,24.4s-16.34-10.92-16.34-24.4,7.32-24.41,16.34-24.41S195,149.47,195,163"/><path class="cls-10" d="M205.74,130.31A18.67,18.67,0,0,1,210,119.93s-21.57,7.53-31.26,7.58-31.25-7.58-31.25-7.58a18.67,18.67,0,0,1,4.21,10.38,58.76,58.76,0,0,1-.75,10.24l2.75,1.6c2.75,1.61,8,4.69,13.37,3.85s11.41-11,11.67-11.48c.27.44,6.42,10.65,11.68,11.48s10.62-2.24,13.37-3.85l2.75-1.6a58.76,58.76,0,0,1-.75-10.24"/><path class="cls-11" d="M159.2,124.58a9.59,9.59,0,0,0-2.86,6.84,9.82,9.82,0,0,0,19.64,0,9.49,9.49,0,0,0-.35-2.57c-4-.33-10.37-2.22-16.43-4.27"/><path class="cls-11" d="M198.19,124.58c-6.06,2-12.39,3.94-16.43,4.27a9.5,9.5,0,0,0-.36,2.57,9.83,9.83,0,0,0,19.65,0,9.59,9.59,0,0,0-2.86-6.84"/><path class="cls-8" d="M161.48,125.12a8.39,8.39,0,0,0-2.51,6,8.6,8.6,0,0,0,17.19,0,8.37,8.37,0,0,0-.3-2.25c-3.54-.3-9.08-2-14.38-3.74"/><path class="cls-8" d="M195.91,125.12c-5.3,1.79-10.84,3.44-14.38,3.74a8.37,8.37,0,0,0-.31,2.25,8.6,8.6,0,0,0,17.19,0,8.38,8.38,0,0,0-2.5-6"/><path class="cls-12" d="M174.81,131.85a1.7,1.7,0,1,1-1.69-1.68,1.69,1.69,0,0,1,1.69,1.68"/><path class="cls-12" d="M182.63,131.85a1.7,1.7,0,1,0,1.7-1.68,1.69,1.69,0,0,0-1.7,1.68"/></g><polygon class="cls-12" points="178.69 134.46 175.07 139.69 178.69 148.61 182.31 139.69 178.69 134.46"/><g class="cls-5"><path class="cls-9" d="M214.07,116.9c-8.94.59-23.91,3-35.38,3s-26.43-2.44-35.37-3c-5.65-.37-8.16,3.17-8.16,3.17s5.46-1.6,9.83-.37,26.2,13.09,33.7,12.6c7.51.49,29.34-11.37,33.71-12.6s9.83.37,9.83.37-2.51-3.54-8.16-3.17"/><path class="cls-4" d="M172.52,238C155.61,243.1,140,246.6,124,244.1c2.37-.12,4.74-.23,7.12-.37a171.07,171.07,0,0,0,69.91-19.95c9.74-5.15,14-13.25,18.5-22,5.52-18,27.52-32.14,30.36-33.72-11.69-.05-37.08-1.13-59.05,17.49C174.68,201,155.33,207.8,132.78,208c-10.6.09-22.62-.27-31.85.15-8.6.57-13.69,1.22-13.69,1.22s10.43-3.09,30.17-3.1c8.16,0,17.05-.36,25.28-1.11-16.59-11.91-36.54-14.07-58.13-8l-16.92,4.85,9.76-4.18a54.74,54.74,0,0,1-26.4,1c11,1.26,18.53.41,38.94-5.35,17.9-4.58,35.36-4.42,50.54,4.74,8.63,5.21,18.08,3.81,27.78-.84,2.62-1.57,6.12-3.54,9.11-5.31a148.77,148.77,0,0,0-36.63-18.48c-3.52-1.16-9.82-1.41-14.05-1.15-14.65.9-47.81,3.43-47.81,3.43l50.87-5.44L114,164.13s12.38,3.19,18.7,4.76,21.42,5.65,28.77,9.33S175.45,186,181,189c4.85-3.95,9.16-9.52,14-13.49,25-15.79,68.69-12.94,72.48-13.14,13.21-.68,24.25,2.76,33.72,9.92,14.65,11.06,44.35,16.91,57.35,16.91s22.87-7.16,37.63-13.9c2.16-1,4.27-2.7,5.84.11,1.39,2.47,2.07,5.28-1.48,7-5.12,2.47-3.51,15.23-9,16.56-15.76,3.8-23.11,6.48-39,6.5s-46.4-17.32-60.47-28.32c-2.81-2.2-7.67-7.21-20.58-7.49s-23.05,5.54-29.25,10.37a55.26,55.26,0,0,0-18.08,23c-4.07,11.59-15,22.14-25.68,26.52A96.52,96.52,0,0,0,180.25,239"/></g><text class="cls-13" transform="translate(157.92 55.78)">Early bi<tspan class="cls-14" x="51.84" y="0">r</tspan><tspan x="56.8" y="0">d </tspan></text><text class="cls-15" transform="translate(157.92 91.27)">65%</text><g class="cls-5"><path class="cls-6" d="M279,118.91s2.15,20.22,10.89,20.71c9.59.52,7.42-8,7.42-8s9.14,3.82,12.88-1.33c4-5.57-3.35-11.47-3.35-11.47s7.56-2.41,6.42-7.13-9.16-6.55-13.57-6.34c-4.66.22-12,2.89-12,2.89Z"/><path class="cls-7" d="M266.69,37a5.14,5.14,0,0,1,.49-2.65,8.94,8.94,0,0,0,.66-5.06,2.89,2.89,0,0,0-1.49-2,4.89,4.89,0,0,0-3.5,0l-.36.14V46.65a4.62,4.62,0,0,0-2.93-1c-2.26,0-4.09,1.47-4.09,3.29s1.83,3.29,4.09,3.29,4.09-1.47,4.09-3.29a3,3,0,0,0,0-.43V28.24a3.32,3.32,0,0,1,2.21.07,1.8,1.8,0,0,1,.92,1.26,8.18,8.18,0,0,1-.64,4.45c-.44,1.31-.82,2.45-.47,3.37.71,1.89,3.31,2.69,3.42,2.72l.33-1s-2.18-.68-2.7-2.05"/><path class="cls-6" d="M251.31,15.06c-.3-.8.18-2.22.69-3.73.73-2.18,1.56-4.64.92-7.13a4.06,4.06,0,0,0-2.1-2.78c-2.1-1.06-4.8,0-4.92,0l-.5.19v27a6.53,6.53,0,0,0-4.13-1.4c-3.19,0-5.77,2.08-5.77,4.64s2.58,4.64,5.77,4.64S247,34.43,247,31.87a3.08,3.08,0,0,0-.05-.61V2.7a4.74,4.74,0,0,1,3.12.1,2.57,2.57,0,0,1,1.29,1.78c.52,2.05-.23,4.29-.9,6.26s-1.15,3.45-.66,4.76c1,2.65,4.66,3.78,4.82,3.83l.47-1.49s-3.07-1-3.81-2.88"/></g><text class="cls-16" transform="translate(57.62 114.64)">Night owl</text><text class="cls-17" transform="translate(56.69 150.13)">35%</text><g class="cls-5"><path class="cls-10" d="M266.12,252.53c4-6.94,2.18-15.95.26-25.67-6.73-19.32.7-37.61,1.82-39.71-8.49,1.95-27.48,5.2-32.25,28-2.49,18.58-12.43,28.85-28.61,32.92-7.61,1.92-14.15,1.48-20.58,3.48a18.49,18.49,0,0,1-11,.36s5.15.43,19.42-3a133.34,133.34,0,0,0,17.61-5.47c-19.1-9.34-34.81-8.13-46.77,1.82l-9.34,7.87,4.56-5.94a26.06,26.06,0,0,1-18.49,5.53c8.72-.61,13.63-2.77,24.95-12.16,10.21-7.76,22.92-10.6,39.36-3.82,9.35,3.85,15.35.79,19.58-5.63,1-2,2.32-4.67,3.42-7-12.58-5.81-25.33-10.43-37.51-12.62-3.24-.59-7.94.24-10.84,1.23-10,3.44-32.51,11.71-32.51,11.71l35.85-16.27s5.42-2.09,14.7,1.37c5.84,1.58,10.5,3.12,10.5,3.12s14.81,5.6,20.57,7.62c1.15-4.87.94-11.3,2.07-16.19,8.62-20.46,41.93-25,44.54-25.89,9.15-3,19.18-1.34,30.29,4.36a145.78,145.78,0,0,0,50.86,15.33c12.9,1.45,12.95-19.11,19.6-28.54,1-1.38,1.48-3.49,4.29-.89,2.47,2.3,4.64,5.05,3.09,7.4-2.23,3.4,89.49,13.83,86.31,16.13-9.13,6.59-107.69,19.56-120.95,16.54C334.41,205.78,320.75,198,304,189.13c-3.34-1.76-9.85-6.07-19.34-4.13s-13.36,9.62-15,15.62c-1.86,6.46-2.44,15.43.65,26.62,4,12.57,8,16.6,2.86,22.92"/></g><polygon class="cls-18" points="15.24 232.86 24.52 245.86 15.24 258.87 54.62 258.87 54.62 232.86 15.24 232.86"/><rect class="cls-9" x="39.4" y="222.41" width="330.55" height="31.45"/><text class="cls-19" transform="translate(55.42 245.47)">Flexible working hours a<tspan class="cls-20" x="227.57" y="0">r</tspan><tspan class="cls-21" x="234.2" y="0">e king!</tspan></text><polygon class="cls-22" points="39.4 253.86 54.62 253.86 54.62 258.87 39.4 253.86"/></svg>