<svg id="Ebene_1" data-name="Ebene 1" xmlns="http://www.w3.org/2000/svg" xmlns:xlink="http://www.w3.org/1999/xlink" viewBox="0 0 369.95 258.87"><defs><style>.cls-1,.cls-6{fill:none;}.cls-2{clip-path:url(#clip-path);}.cls-3{fill:#405c76;}.cls-4{fill:#728197;}.cls-5{clip-path:url(#clip-path-3);}.cls-6{stroke:#ecf0f4;stroke-miterlimit:10;stroke-width:3px;}.cls-7{fill:#c5d2dd;}.cls-13,.cls-14,.cls-25,.cls-8{fill:#fff;}.cls-20,.cls-21,.cls-9{fill:#9ab6c7;}.cls-10,.cls-15,.cls-16{fill:#7d899e;}.cls-11{fill:#536a83;}.cls-12{fill:#4db7af;}.cls-13,.cls-15,.cls-17,.cls-20{font-size:11.9px;}.cls-13,.cls-15,.cls-17,.cls-20,.cls-25{font-family:HelveticaNeue, Helvetica Neue;}.cls-14,.cls-16,.cls-18,.cls-21{font-size:27.76px;font-family:HelveticaNeue-Thin, Helvetica Neue;font-weight:200;}.cls-17,.cls-18{fill:#b0c4d2;}.cls-19{letter-spacing:-0.16em;}.cls-21{letter-spacing:-0.18em;}.cls-22{letter-spacing:0em;}.cls-23{fill:#bacbd7;}.cls-24{fill:#d8e1e9;}.cls-25{font-size:21.05px;}.cls-26{letter-spacing:-0.09em;}</style><clipPath id="clip-path"><rect class="cls-1" x="-390.95" width="369.95" height="261.26"/></clipPath><clipPath id="clip-path-3"><rect class="cls-1" width="369.95" height="253.79"/></clipPath></defs><title>ePagesInNumbers</title><g class="cls-2"><path class="cls-3" d="M-218.43,238c-16.91,5.13-32.57,8.63-48.48,6.13,2.37-.12,4.74-.23,7.12-.37a171.07,171.07,0,0,0,69.91-19.95c9.74-5.15,14-13.25,18.5-22,5.52-18,27.52-32.14,30.36-33.72-11.69-.05-37.08-1.13-59,17.49C-216.26,201-235.61,207.8-258.17,208c-10.6.09-22.62-.27-31.85.15-8.6.57-13.69,1.22-13.69,1.22s10.43-3.09,30.17-3.1c8.16,0,17.05-.36,25.28-1.11-16.59-11.91-36.54-14.07-58.12-8l-16.93,4.85,9.76-4.18a54.74,54.74,0,0,1-26.4,1c11,1.26,18.53.41,38.94-5.35,17.9-4.58,35.37-4.42,50.54,4.74,8.63,5.21,18.08,3.81,27.78-.84,2.62-1.57,6.12-3.54,9.11-5.31a148.77,148.77,0,0,0-36.63-18.48c-3.52-1.16-9.82-1.41-14-1.15-14.65.9-47.81,3.43-47.81,3.43l50.87-5.44-15.8-6.32s12.38,3.19,18.7,4.76,21.43,5.65,28.77,9.33,14,7.82,19.6,10.73c4.85-3.95,9.16-9.52,14-13.49,25-15.79,68.7-12.94,72.48-13.14,13.21-.68,24.25,2.76,33.72,9.92,14.65,11.06,44.35,16.91,57.35,16.91S-9.52,182,5.24,175.25c2.16-1,4.28-2.7,5.84.11,1.39,2.47,2.07,5.28-1.48,7-5.12,2.47-3.51,15.23-9,16.56-15.76,3.8-23.11,6.48-39,6.5s-46.4-17.32-60.47-28.32c-2.81-2.2-7.67-7.21-20.58-7.49s-23,5.54-29.25,10.37a55.26,55.26,0,0,0-18.08,23c-4.07,11.59-15,22.14-25.68,26.52A96.52,96.52,0,0,0-210.7,239"/></g><g class="cls-2"><path class="cls-4" d="M-124.83,252.53c4-6.94,2.18-15.95.26-25.67-6.73-19.32.7-37.61,1.82-39.71-8.48,1.95-27.48,5.2-32.25,28-2.49,18.58-12.42,28.85-28.61,32.92-7.61,1.92-14.15,1.48-20.58,3.48a18.5,18.5,0,0,1-11,.36s5.15.43,19.42-3a133.34,133.34,0,0,0,17.61-5.47c-19.1-9.34-34.81-8.13-46.77,1.82l-9.33,7.87,4.56-5.94a26.1,26.1,0,0,1-18.5,5.53c8.72-.61,13.63-2.77,25-12.16,10.21-7.76,22.93-10.6,39.36-3.82,9.35,3.85,15.35.79,19.58-5.63,1-2,2.32-4.67,3.42-7-12.58-5.81-25.33-10.43-37.51-12.62-3.23-.59-7.94.24-10.84,1.23-10.05,3.44-32.51,11.71-32.51,11.71l35.86-16.27s5.41-2.09,14.69,1.37c5.84,1.58,10.5,3.12,10.5,3.12s14.81,5.6,20.57,7.62c1.15-4.87.94-11.3,2.07-16.19,8.62-20.46,41.93-25,44.55-25.89,9.14-3,19.17-1.34,30.29,4.36a145.67,145.67,0,0,0,50.85,15.33c12.9,1.45,13-19.11,19.6-28.54,1-1.38,1.48-3.49,4.29-.89,2.47,2.3,4.64,5.05,3.1,7.4-2.24,3.4,89.48,13.83,86.3,16.13C71.81,198.62-26.75,211.59-40,208.57-56.54,205.78-70.2,198-86.93,189.13c-3.34-1.76-9.85-6.07-19.35-4.13s-13.36,9.62-15,15.62c-1.86,6.46-2.44,15.43.65,26.62,4,12.57,8,16.6,2.86,22.92"/></g><g class="cls-5"><path class="cls-6" d="M1.5,252.28V24.88l367-.61v227.4Z"/><path class="cls-7" d="M225.32,140l-96.53-5.06a92.2,92.2,0,0,1,12.82-43.27Z"/><path class="cls-8" d="M129.86,133.94l91.28,4.78L142,93a90.81,90.81,0,0,0-12.12,40.92m99.64,7.26-101.78-5.34,0-1a93,93,0,0,1,13-43.73l.51-.88Z"/><path class="cls-9" d="M225.32,140,137,179.28a92.27,92.27,0,0,1-8.22-44.38Z"/><path class="cls-8" d="M137.53,177.93,221,140.76,129.76,136a90.62,90.62,0,0,0,7.77,42m92.07-38.76-93.1,41.45-.42-.93a93.17,93.17,0,0,1-8.31-44.84l.06-1Z"/><path class="cls-10" d="M225.32,140l-42.38,86.88A93.78,93.78,0,0,1,137,179.28Z"/><path class="cls-8" d="M138.36,179.79a93.1,93.1,0,0,0,44.12,45.68L223.18,142Zm45,48.41-.91-.45a95.28,95.28,0,0,1-46.42-48.06l-.41-.93,91.79-40.87Z"/><path class="cls-11" d="M225.32,140l45.38,85.35c-28.29,15-59,15.57-87.76,1.53Z"/><path class="cls-8" d="M184.31,226.36c28.07,13.38,57.42,12.87,85-1.48l-44-82.68Zm87.76-.63-.9.47c-28.75,15.29-59.41,15.83-88.67,1.55l-.92-.44,43.7-89.59Z"/><path class="cls-11" d="M225.32,140,321,153.41c-4.46,31.72-22.06,56.86-50.34,71.9Z"/><path class="cls-8" d="M271.11,223.93c27.32-14.85,44.16-38.9,48.77-69.65l-92.73-13Zm38.83-34.36c-8.81,15.25-21.86,27.64-38.77,36.63l-.89.48-46.8-88,98.7,13.87-.14,1a99,99,0,0,1-12.1,36"/><path class="cls-12" d="M225.32,140l31.47-91.39C301.2,63.86,327.57,106.89,321,153.41Z"/><path class="cls-8" d="M226.68,139.13l93.48,13.13c5.9-45.24-19.75-87.11-62.75-102.39Zm95.22,15.43L224,140.8l32.21-93.53,1,.34c44.82,15.43,71.52,59,64.92,105.94Z"/><path class="cls-12" d="M225.32,140,141.61,91.63C165.1,51,212.37,33.27,256.79,48.57Z"/><path class="cls-8" d="M143,91.26l81.76,47.2L255.49,49.2C212.2,34.78,166.21,52,143,91.26m82.88,50.2L140.22,92l.51-.88c23.7-41.05,71.56-58.95,116.39-43.51l1,.33Z"/></g><text class="cls-13" transform="translate(254.49 167.6)">Perl</text><text class="cls-14" transform="translate(252.19 194.98)">15%</text><text class="cls-15" transform="translate(102.05 205.42)">Java</text><text class="cls-16" transform="translate(99.75 232.8)">11%</text><text class="cls-13" transform="translate(202.87 201.52)">Others</text><text class="cls-14" transform="translate(201.34 228.89)">15%</text><text class="cls-17" transform="translate(71.3 80.29)">Python</text><text class="cls-18" transform="translate(70.53 107.67)"><tspan class="cls-19">7</tspan><tspan x="11.02" y="0">.5%</tspan></text><text class="cls-20" transform="translate(47.68 148.32)">HTML &amp; CSS</text><text class="cls-21" transform="translate(46.91 176.12)">7<tspan class="cls-22" x="10.44" y="0">.5%</tspan></text><text class="cls-13" transform="translate(172.37 75.03)">JavaScript</text><text class="cls-14" transform="translate(172.37 102.3)">22%</text><text class="cls-13" transform="translate(244.33 107.88)">Kotlin/Ruby</text><text class="cls-14" transform="translate(244.33 135.15)">22%</text><polygon class="cls-23" points="47.98 10.49 57.3 23.55 47.98 36.6 87.51 36.6 87.51 10.49 47.98 10.49"/><polygon class="cls-24" points="72.23 31.57 87.51 31.57 87.51 36.6 72.23 31.57"/><polygon class="cls-23" points="321.98 10.49 312.65 23.55 321.98 36.6 282.44 36.6 282.44 10.49 321.98 10.49"/><rect class="cls-9" x="72.35" width="225.37" height="31.57"/><polygon class="cls-24" points="297.72 31.57 282.44 31.57 282.44 36.6 297.72 31.57"/><g class="cls-5"><text class="cls-25" transform="translate(88.32 23.15)">Our hearts beat fo<tspan class="cls-26" x="170.81" y="0">r</tspan><tspan x="175.88" y="0">...</tspan></text></g></svg>