<svg id="Ebene_1" data-name="Ebene 1" xmlns="http://www.w3.org/2000/svg" viewBox="0 0 31.38 55.66"><defs><style>.cls-1{fill:#fff;}.cls-2{fill:#4eb7a8;}</style></defs><title>GooglePin</title><path class="cls-1" d="M31,21.6A15.69,15.69,0,1,0,.65,16.12a15.81,15.81,0,0,0,1,5.48L16.34,56.09Z" transform="translate(-0.65 -0.43)"/><path id="e" class="cls-2" d="M11.43,18.16A6.11,6.11,0,0,0,13,22.1a4.72,4.72,0,0,0,3.59,1.49,4.9,4.9,0,0,0,2.54-.65,3,3,0,0,0,1.43-1.81h5.86A9.6,9.6,0,0,1,23,26.34a10.27,10.27,0,0,1-6.1,1.84c-6.29,0-10.8-4-10.8-11.91a13.56,13.56,0,0,1,.73-4.59A10.41,10.41,0,0,1,8.89,8.17a9,9,0,0,1,3.35-2.24,11,11,0,0,1,4.26-.78c3.43,0,5.81,1.08,7.54,3.24s2.56,5.42,2.56,9.77Zm9.42-3.64a5.57,5.57,0,0,0-.43-2.11,4.39,4.39,0,0,0-1-1.51A4,4,0,0,0,17.93,10a5,5,0,0,0-1.67-.3A4.73,4.73,0,0,0,13,11a5.35,5.35,0,0,0-1.48,3.54Z" transform="translate(-0.65 -0.43)"/></svg>
