<svg id="Ebene_1" data-name="Ebene 1" xmlns="http://www.w3.org/2000/svg" viewBox="0 0 350 75"><defs><style>.cls-1{fill:#f9b233;}.cls-10,.cls-2{fill:#1e323b;}.cls-3,.cls-7{fill:#108cbd;}.cls-4{fill:#3f4f58;}.cls-5{fill:#77757a;}.cls-10,.cls-11,.cls-12,.cls-13,.cls-14,.cls-15,.cls-16,.cls-17,.cls-18,.cls-19,.cls-20,.cls-21,.cls-22,.cls-5,.cls-6,.cls-7,.cls-8,.cls-9{fill-rule:evenodd;}.cls-23,.cls-6{fill:#000101;}.cls-8{fill:#de9357;}.cls-24,.cls-9{fill:#fff;}.cls-11{fill:#eba43e;}.cls-12{fill:#cc5378;}.cls-13{fill:#984640;}.cls-14{fill:#eba33e;}.cls-15{fill:#0c0700;}.cls-16{fill:#fefefe;}.cls-17{fill:#fcfcfc;}.cls-18{fill:#e8a23d;}.cls-19{fill:#e6a03d;}.cls-20{fill:#eeeeef;}.cls-21{fill:#dd9256;}.cls-22{fill:#eaa33e;}</style></defs><title>Zeichenfläche 1</title><path class="cls-1" d="M84,33.21l-2.26,3.9,3.1-3.16A1.78,1.78,0,0,1,84,33.21Z"/><path class="cls-2" d="M84.67,23.67h0c-2.73-.09-5.14-.81-6.46-1.94a7.06,7.06,0,0,1-2.62-4.86,3,3,0,0,1,.82-2.28,2.82,2.82,0,0,1,2.1-.67,8.88,8.88,0,0,1,5.11,2.29c2.17,1.88,5.34,5.95,5.22,6.69a.3.3,0,0,1-.18.24,10.2,10.2,0,0,1-4,.52Zm-6.18-9.28a2.38,2.38,0,0,0-1.76.54,2.48,2.48,0,0,0-.68,1.93,6.59,6.59,0,0,0,2.45,4.52,10.54,10.54,0,0,0,6.18,1.83h0a10.29,10.29,0,0,0,3.68-.44,25.46,25.46,0,0,0-5.05-6.2,8.41,8.41,0,0,0-4.82-2.18Z"/><ellipse class="cls-2" cx="95.81" cy="12.41" rx="0.69" ry="0.5" transform="translate(10.07 56.92) rotate(-34.82)"/><ellipse class="cls-2" cx="92.34" cy="11.27" rx="0.69" ry="0.5" transform="translate(52.7 95.42) rotate(-71.74)"/><path class="cls-2" d="M91.95,11.72a.53.53,0,0,1,.35.19c-.86,1.3-.15,3.9.24,5.07.67-3.68,2.82-4.4,2.82-4.4a.55.55,0,0,1,.19.34c-2,.66-2.71,4.2-2.79,4.65h0s.23,1.12-.15.55C90.58,14,91.95,11.72,91.95,11.72Z"/><path class="cls-1" d="M86.59,25.19c-.35,0-1.7,1.46-1.65,1.79a8.86,8.86,0,0,0,6,4.89,2.4,2.4,0,0,0,1.76-2A8.51,8.51,0,0,1,86.59,25.19Z"/><path class="cls-2" d="M90.25,23.58a5.17,5.17,0,0,0-2.15.63,6.9,6.9,0,0,0,5.36,3.88,3.43,3.43,0,0,0,0-2.31A4.27,4.27,0,0,1,90.25,23.58Z"/><path class="cls-2" d="M83.93,29c1.08,2.44,5.34,4.71,5.14,4.26C87.81,34.32,82.57,34.46,83.93,29Z"/><path class="cls-2" d="M93.14,24.82c2.26.87,5.46.1,5.77-1.4.23-1.11-1.3-2.79-3.37-4.07-2.39-1.48-4.46-.69-5,.74S90.88,23.95,93.14,24.82Zm1.52-5c-.08-.1.76,1.18,1.47.09.08-.1.5.34.5.34s.93.92.31,1.31C95.53,22.21,94.66,19.86,94.66,19.86Z"/><path class="cls-3" d="M12.49,32.79a1.49,1.49,0,0,1,1.62-1.65H20c7.29,0,10.86,5.64,10.86,12.1,0,7.32-3.88,12.37-10.45,12.37H14.1A1.49,1.49,0,0,1,12.49,54Zm3,20.21h4.33c5.71,0,7.84-4.78,7.84-9.76s-2.27-9.49-8-9.49H15.51Z"/><path class="cls-3" d="M35.89,47.64c0,3.13,2,5.57,5.4,5.57,4,0,5.05-2.47,6.19-2.47a1.2,1.2,0,0,1,1.1,1.34c0,1.48-3.75,3.75-7.32,3.75-5.84,0-8.39-4.5-8.39-9.35s3.09-9.35,8.21-9.35S49,41.62,49,46c0,1.07-.38,1.62-1.68,1.62Zm10-2.27c0-2.61-1.51-5.64-4.85-5.64-3.75-.14-5.09,2.85-5.19,5.64Z"/><path class="cls-3" d="M50.33,39.77A3.56,3.56,0,0,1,50,38.53a1.34,1.34,0,0,1,1.37-1.41A1.47,1.47,0,0,1,53,38.29l4.16,12.65h.07l4.16-12.65a1.47,1.47,0,0,1,1.58-1.17,1.34,1.34,0,0,1,1.37,1.41A3.57,3.57,0,0,1,64,39.77L58.75,54.51c-.31.89-.62,1.31-1.58,1.31s-1.27-.41-1.58-1.31Z"/><path class="cls-3" d="M90.2,38.74a1.52,1.52,0,1,1,3,0v.89h.07c.86-1.65,2.47-2.51,4.88-2.51,4.95,0,7.8,4.5,7.8,9.35s-2.85,9.35-7.8,9.35a6,6,0,0,1-4.88-2.47h-.07v8.08a1.52,1.52,0,1,1-3,0ZM97.94,53.2c3.71,0,5-3.64,5-6.74s-1.31-6.74-5-6.74-5,3.64-5,6.74S94.22,53.2,97.94,53.2Z"/><path class="cls-3" d="M115,37.12c2.51,0,6.08,1.34,6.08,3.23a1.23,1.23,0,0,1-1.37,1.24c-1.31,0-1.82-1.86-4.71-1.86-1.72,0-3.2.76-3.2,2.3,0,3.2,9.76,2.85,9.76,8.15,0,3.82-3.27,5.64-6.67,5.64-3.85,0-6.87-1.92-6.87-3.47A1.29,1.29,0,0,1,109.25,51c1.34,0,2.44,2.23,5.74,2.23,2.2,0,3.54-1.24,3.54-2.47,0-3.57-9.76-3.37-9.76-8.45C108.76,38.91,111.93,37.12,115,37.12Z"/><path class="cls-3" d="M84.39,35.57l-2.28,1.8A12.74,12.74,0,0,1,83.77,44c0,4.67-2,9.83-7.49,9.83S68.79,48.67,68.79,44s2-9.83,7.49-9.83a6.5,6.5,0,0,1,5,2.14L82.91,34l0,0a9.82,9.82,0,0,0-6.6-2.38c-7,0-10.72,6.08-10.72,12.44S69.3,56.44,76.28,56.44,87,50.36,87,44A14.14,14.14,0,0,0,84.39,35.57Z"/><path class="cls-4" d="M149.5,44.8a1.41,1.41,0,1,1,0-2.82h5.09c1.55,0,2.2.58,2.2,2.47,0,5.91-2.13,11.75-10.45,11.75-7,0-10.72-6.08-10.72-12.44s3.51-12.44,11.17-12.44c5,0,8.39,2.61,8.39,3.92a1.41,1.41,0,0,1-1.44,1.44c-1.51,0-2.75-2.75-7.15-2.75-5.5,0-7.73,5.16-7.73,9.83s2.17,9.83,7.87,9.83c4.74,0,7-4.06,7-7.35V44.8Z"/><path class="cls-4" d="M174.6,54.73a1.4,1.4,0,0,1-1.41,1.48,1.38,1.38,0,0,1-1.41-1.48V53.46h-.07a5.92,5.92,0,0,1-5,2.75c-5.16,0-8-4.5-8-9.35s2.89-9.35,8-9.35a6.39,6.39,0,0,1,5,2.44h.07V39a1.38,1.38,0,0,1,1.41-1.48A1.4,1.4,0,0,1,174.6,39Zm-7.87-1.13c3.71,0,5-3.64,5-6.74s-1.31-6.74-5-6.74-5,3.64-5,6.74S163,53.6,166.73,53.6Z"/><path class="cls-4" d="M179.55,33.77a1.52,1.52,0,1,1,3,0v4h1.24c1,0,1.51.48,1.51,1.31s-.52,1.31-1.51,1.31h-1.24V54.59a1.52,1.52,0,1,1-3,0V40.33h-1.24c-1,0-1.51-.48-1.51-1.31s.52-1.31,1.51-1.31h1.24Z"/><path class="cls-4" d="M199,44.63a4.24,4.24,0,1,0-8.45,0v10a1.52,1.52,0,1,1-3,0V31.08a1.52,1.52,0,1,1,3,0v8.76l.07.07a6.26,6.26,0,0,1,5.05-2.41c2.82,0,6.36,1.79,6.36,6.94V54.59a1.52,1.52,0,1,1-3,0Z"/><path class="cls-4" d="M207.94,48c0,3.13,2,5.57,5.4,5.57,4,0,5.05-2.47,6.19-2.47a1.2,1.2,0,0,1,1.1,1.34c0,1.48-3.75,3.75-7.32,3.75-5.84,0-8.39-4.5-8.39-9.35s3.09-9.35,8.21-9.35S221,42,221,46.41c0,1.07-.38,1.62-1.68,1.62Zm10-2.27c0-2.61-1.51-5.64-4.85-5.64C209.38,40,208,43,207.94,45.76Z"/><path class="cls-4" d="M223.89,39.13a1.52,1.52,0,1,1,3,0v1.55H227c.69-1.41,2.37-3.16,4.12-3.16a1.54,1.54,0,0,1,1.68,1.55c0,.86-.62,1.41-1.89,1.65-1.79.31-4,1.65-4,5.19v8.7a1.52,1.52,0,1,1-3,0Z"/><path class="cls-4" d="M236.23,31.32a1.86,1.86,0,1,1-1.86,1.86A1.85,1.85,0,0,1,236.23,31.32Zm1.51,23.27a1.52,1.52,0,1,1-3,0V39.13a1.52,1.52,0,1,1,3,0Z"/><path class="cls-4" d="M241.73,39.13a1.52,1.52,0,1,1,3,0v.72l.07.07a6.26,6.26,0,0,1,5.05-2.41c2.82,0,6.36,1.79,6.36,6.94V54.59a1.52,1.52,0,1,1-3,0v-10a4.24,4.24,0,1,0-8.45,0v10a1.52,1.52,0,1,1-3,0Z"/><path class="cls-4" d="M275.21,54.7c0,5.43-3.3,8.73-8.25,8.73-3.13,0-7-1.79-7-3.33a1.27,1.27,0,0,1,1.27-1.41c1.38,0,2.72,2.13,6,2.13,3.85,0,5-3,5-5.64V53.6h-.07a5.24,5.24,0,0,1-4.64,2.61c-5.16,0-8-4.5-8-9.35s2.89-9.35,8-9.35a6.19,6.19,0,0,1,4.64,2.3h.07V39a1.44,1.44,0,0,1,1.62-1.48A1.4,1.4,0,0,1,275.21,39Zm-7.73-1.1c3.71,0,5-3.64,5-6.74s-1.31-6.74-5-6.74-5,3.64-5,6.74S263.76,53.6,267.47,53.6Z"/><g id="DOG"><path class="cls-5" d="M334.12,30.12h0v-.26h0Z"/><path class="cls-6" d="M297.81,62.54c.11-.13,0-.33.12-.47a6.73,6.73,0,0,1,1.1-1.4,8.25,8.25,0,0,1,5-2.15c.38,0,.76,0,1.18-.05l-.09-.09a14.82,14.82,0,0,1-2.51-2.94,15.87,15.87,0,0,1-1.53-2.85c-.06-.15-.13-.17-.25-.13a.91.91,0,0,1-.7,0A2,2,0,0,1,299,50.08a6.2,6.2,0,0,1,.62-1.61.36.36,0,0,0,.06-.24c-.08-.41-.17-.82-.2-1.25a.73.73,0,0,0-.11-.31,9.19,9.19,0,0,0-.79-1.16,1.11,1.11,0,0,1-.18-.35,3.58,3.58,0,0,1,.18-2.91,22.54,22.54,0,0,0,1.79-2.59,17.41,17.41,0,0,1,2-3.64c.62-.88,1.94-2.5,2-2.77a2.26,2.26,0,0,0-.13-1.82c-.05-.15-.07-.19-.18-.19a3.62,3.62,0,0,1-2.39-2,8.73,8.73,0,0,1-1.1-2.53,5.54,5.54,0,0,1,.08-2.82c.13-.41.12-.51-.2-.74a3.3,3.3,0,0,1-.59-1.25,7.22,7.22,0,0,1,.06-1.25c0-.46.12-.91.18-1.37a18.23,18.23,0,0,1,.44-2.84,3.18,3.18,0,0,1,.51-.94,2.46,2.46,0,0,1,.29-.2,8.83,8.83,0,0,1,2-.68,3.36,3.36,0,0,1,1.58-.15c.09,0,.13-.05.17-.11A13.21,13.21,0,0,1,307.26,12s.08-.06.06-.09-.37-.85-.39-.89a5.65,5.65,0,0,1-.28-1,7.13,7.13,0,0,0-.73-1.46c-.19-.32-.23-.29.06-.62a3.61,3.61,0,0,1,.89-.68c1.13-.67,6.66-1.16,6.84-1.12s.64.07,1,.12a2,2,0,0,1,.38.13.08.08,0,0,1,.06.09c0,.05-.45,3.49-.58,4,0,.08,0,.13.08.12a10.26,10.26,0,0,0,2.13-.58c.1,0,.19-.12.3-.16a.28.28,0,0,1,.36.12,1,1,0,0,1-.13,1.2h.46a.37.37,0,0,1,.37.16.43.43,0,0,1-.06.45c-.11.16-.07.25,0,.38a13.35,13.35,0,0,1,1.37,2,.53.53,0,0,0,.41.29,5.17,5.17,0,0,0,1.26.06c.43,0,.86,0,1.29,0,.76,0,1.2.53,1.23,1.42a16.09,16.09,0,0,1-.4,4c-.06.26-.13.51-.2.77a.48.48,0,0,0,0,.3,11,11,0,0,1,.57,4.68,10.31,10.31,0,0,1-.54,2.48,3,3,0,0,1-.27.6,8.72,8.72,0,0,0-2,2.71.44.44,0,0,0,0,.18,2.87,2.87,0,0,0,.08,1.46,21.08,21.08,0,0,0,1,2c.69,1.12,1.45,2.18,2.07,3.37a4,4,0,0,1,.24-1.59,10.16,10.16,0,0,1,1.32-2.42,15.09,15.09,0,0,1,3.55-3.48,10,10,0,0,1,2.4-1.34,4.28,4.28,0,0,1,1.42-.3c.25,0,.5-.12.75,0s.48.22.46.6a.82.82,0,0,1,0,.24,1.29,1.29,0,0,1-.4,1,11.89,11.89,0,0,1-1.07,1.07,7.38,7.38,0,0,0-1.05,1.27,3.66,3.66,0,0,0-.25.45c-.08.16-.07.23.11.27a1,1,0,0,1,.54,1.43,4.67,4.67,0,0,1-1.09,1.32,9.33,9.33,0,0,0-1,1,1.6,1.6,0,0,0-.16.23c-.08.15-.08.24.08.35a.7.7,0,0,1,.3.7,2.59,2.59,0,0,1-.36,1,12.75,12.75,0,0,1-1,1.45,11.11,11.11,0,0,1-1,1.45.31.31,0,0,0-.05.1,27,27,0,0,0-1,2.55,10.85,10.85,0,0,0-.44,2.36,5.9,5.9,0,0,1-.25,1.5,9.93,9.93,0,0,0-.25,1.36,18.91,18.91,0,0,1-1.66,5,12.77,12.77,0,0,1-1.37,2.11c-.15.19-.15.19.06.28a3.78,3.78,0,0,1,1.81,1.5,4.43,4.43,0,0,1,.37,2.7c-.07.3-.22.56-.31.85a.39.39,0,0,1-.42.26h-2c-.7,0-1.41,0-2.11.06-.88,0-1.75.12-2.63.13-.46,0-.59-.19-.61-.72a13.23,13.23,0,0,1,.18-1.89,3.38,3.38,0,0,1,.31-.67,1.52,1.52,0,0,0-.41.14c-.91.39-4.71.75-4.8.39a2.89,2.89,0,0,1,.08.92,1.28,1.28,0,0,1-.28.77,1.58,1.58,0,0,1-1.13.63c-.51,0-1,.14-1.53.2a11.76,11.76,0,0,1-1.26.08h-4.08c-.9,0-1.8.09-2.7.12a19.73,19.73,0,0,1-2.3,0,1.8,1.8,0,0,1-.94-.35c-.06,0-.14-.08-.15-.19a1.92,1.92,0,0,0,0-.44v-.29"/><path class="cls-7" d="M306.19,39.72a2.49,2.49,0,0,0,1.15,2.17,1.74,1.74,0,0,0,1.86-.13,4.1,4.1,0,0,0,1.86-2.86,3.87,3.87,0,0,0,0-1.59c0-.07-.07-.15,0-.2s.12,0,.17,0c1.26.37,7,1.89,7.38,1.89.05,0,2-1.85,2.55-2.37.18-.16.76-.49.87-.57s.16.11.21.19c.57.87,1.09,1.79,1.59,2.73a15.49,15.49,0,0,1,1.56,4.29,11.28,11.28,0,0,1,.31,1.83,12.73,12.73,0,0,1-.23,3,6.42,6.42,0,0,1-.51,1.64,19.21,19.21,0,0,1-4.41,4.39,16.84,16.84,0,0,1-6.47,3,14.6,14.6,0,0,1-3.32.22,25.32,25.32,0,0,1-5.13-.64,7.45,7.45,0,0,1-.83-.28,1.63,1.63,0,0,1-.52-.34,10.06,10.06,0,0,1-1.84-2.64,17.65,17.65,0,0,1-1-2.15c-.15-.36-.34-.69-.49-1.05a9.33,9.33,0,0,1-.32-1.49c-.14-.62-.12-1.28-.3-1.88a6.75,6.75,0,0,1-.23-2.35,14.89,14.89,0,0,1,.47-3.63A11.87,11.87,0,0,1,302,38a1.31,1.31,0,0,0,1.22.16c1.06-.26,2.08-.67,3.12-1a.61.61,0,0,1,.35-.07A9.79,9.79,0,0,0,306.19,39.72Z"/><path class="cls-8" d="M306.78,33.48a7.64,7.64,0,0,0-1.29-.85c-.18-.09-.16-.31-.19-.47a2.52,2.52,0,0,0-.33-.9,3.79,3.79,0,0,0,.83-.31.35.35,0,0,1,.58.16,2.24,2.24,0,0,0,.71,1.09.92.92,0,0,0,1.28-.14.9.9,0,0,0,.19-.74c0-.24-.07-.48-.1-.74.39.11.75.27,1.12.34,1.79.34,4.32-3.94,3.92-6.66a3.89,3.89,0,0,0-2.34-3.15l-.2-.07a12.1,12.1,0,0,0-2.53-.27c-.53.07-1.05-.05-1.58,0a7.92,7.92,0,0,0-2.15.21c-.22.07-.45-.06-.69,0a4.17,4.17,0,0,0-1.75.79l-.09.05a5.16,5.16,0,0,1,.25-.78c.47-1.31.7-1.85,1.19-3.23a22.63,22.63,0,0,1,2-2.86c.54-.65,1.06-1.32,1.65-1.93l0,0c.06-.11,0-.3.18-.33s.17.16.28.22a2.81,2.81,0,0,0,1.4.33,5.76,5.76,0,0,0,3.42-1,9.28,9.28,0,0,0,1.09-.73c.11-.1.69-.53,1-.5a11.16,11.16,0,0,0,2.41-.7c.07-.05.08,0,.09.08a.43.43,0,0,1-.12.41,1.15,1.15,0,0,0-.34.39c0,.11-.06.2.06.26a1.15,1.15,0,0,0,.88.19,2.19,2.19,0,0,0-.19.46c0,.17.06.27.21.22s.07-.08.13,0c.45.74.88,1.5,1.29,2.28a1.31,1.31,0,0,1,.05.15c-.23.05-.45,0-.67.05s-.3.09-.45.11-.1.08-.13.14a2.35,2.35,0,0,0-.23.83,26.16,26.16,0,0,0-.12,3.58,27.54,27.54,0,0,0,.16,3.56,3.14,3.14,0,0,0,.48,1.49,17.53,17.53,0,0,0,1.53,1.16c.17.12.91.61,1.07.5a1.3,1.3,0,0,0,.43-.58c.52-1.13.95-2.31,1.39-3.49l.12-.3a8,8,0,0,1,.26,1.25,9.65,9.65,0,0,1-.58,5.18c-.06.15-.19.22-.26.34a14.26,14.26,0,0,1-.88,1.24,8.18,8.18,0,0,0-.83,1.29.46.46,0,0,1-.29.31c-.89.46-1.85.69-2.76,1.06s-1.84.78-2.77,1.12c-1.21.45-2.37,1.08-3.58,1.52-.66.24-1.47.6-2.15.05Z"/><path class="cls-8" d="M312.59,26a6.71,6.71,0,0,1-1.37,3.19c-.17.23-.37.42-.55.64a1.23,1.23,0,0,1-1.43.39,5.9,5.9,0,0,1-.92-.4.82.82,0,0,0-.51-.1.71.71,0,0,1-.47-.08,3.87,3.87,0,0,1-1.6-1.56,7.18,7.18,0,0,1-.81-2.2,6.06,6.06,0,0,1-.16-1.29c.05-.1.32-.09.4-.17a5.75,5.75,0,0,0,1.06-1.52,4.37,4.37,0,0,1,1.31-1.39.33.33,0,0,1,.22-.08c.66.06,1.33,0,2,.11,1.92.37,2.14,1.17,2.41,1.6A4.85,4.85,0,0,1,312.59,26Z"/><path class="cls-8" d="M326.1,45.43c-.07-.38-.06-.78-.14-1.15,0-.21-.21-1.26-.26-1.47a14.24,14.24,0,0,0-1.13-3.17,2,2,0,0,1-.1-1,5.62,5.62,0,0,1,1.15-3,14.94,14.94,0,0,1,5.51-4.94,10,10,0,0,1,2-.77c.07,0,.15,0,.19,0s0,.15-.06.21a5.68,5.68,0,0,1-.95,1A7.72,7.72,0,0,0,331,32.66a3,3,0,0,0-.47,1.24,1.29,1.29,0,0,0,0,.52s0,0,0,.06c-.08.43.17.39.4.38a.24.24,0,0,1,.24.12c0,.1-.05.18-.1.24a10.49,10.49,0,0,1-1.41,1.36,3.46,3.46,0,0,0-.84,1,1.38,1.38,0,0,0,0,1.17.38.38,0,0,0,.46.26,6.79,6.79,0,0,1-.56,1,11.53,11.53,0,0,0-1,1.57c-.26.56-.59,1.08-.85,1.64A21,21,0,0,0,326.1,45.43Z"/><path class="cls-8" d="M305.45,57.52a1.78,1.78,0,0,1,.65.19,15.58,15.58,0,0,0,13.26-1.35,16.57,16.57,0,0,0,4.47-3.76,7.47,7.47,0,0,0,.53-.61,5.47,5.47,0,0,0,.7-1,.88.88,0,0,1,.19-.41c-.12.63-.26,1.22-.42,1.8a16.59,16.59,0,0,1-1.19,3.08,11.75,11.75,0,0,1-1.84,2.59.25.25,0,0,1-.19.07,4.64,4.64,0,0,0-1.7.39,9.81,9.81,0,0,0-1.7,1,14.16,14.16,0,0,1-3.67.69c-.52,0-1,.13-1.55.14a10.09,10.09,0,0,1-1.91-.12,7.68,7.68,0,0,1-2.94-.9,9.63,9.63,0,0,1-1.78-1.08C306.06,58,305.75,57.78,305.45,57.52Z"/><path class="cls-8" d="M320.36,25.2c-.31-.34-1.15-1.15-1.49-1.46a.36.36,0,0,1-.1-.25,44.09,44.09,0,0,1-.26-5,17,17,0,0,1,0-2.89,6.72,6.72,0,0,1,1.54-.37,10.24,10.24,0,0,1,2.54,0c.43.12.33,1.27.32,1.5,0,.71-.15,1.41-.17,2.11a7.22,7.22,0,0,1-.36,1.51C321.91,22.18,320.58,25.45,320.36,25.2Z"/><path class="cls-8" d="M299.25,63c.41-.58,1.2-1.84,1.76-1.91.09,0,.15,0,.12-.13a.23.23,0,0,0-.23-.21,1.1,1.1,0,0,0-.74.31,6.47,6.47,0,0,0-1.48,1.58c0,.06-.07.15-.16.13s-.21-.14-.1-.3a6.7,6.7,0,0,1,3.77-2.84,12.81,12.81,0,0,1,3.73-.47.59.59,0,0,1,.34.16,10.91,10.91,0,0,0,3.91,1.8c.31.07.62.14.93.18.12,0,.17.07.2.2a2,2,0,0,1,0,.65.24.24,0,0,1-.12.19l-.89.6c-.08.05-.17,0-.25,0-1.64.12-3.29,0-4.93,0s-3,.08-4.49.13A6.74,6.74,0,0,1,299.25,63Z"/><path class="cls-8" d="M302.83,22.79a3.08,3.08,0,0,0,.74,1.63.46.46,0,0,0,.49.15c.13,0,.15,0,.16.13a7.48,7.48,0,0,0,1.5,4.42,2.73,2.73,0,0,0,.5.41c.06,0,.14.09,0,.17a3.2,3.2,0,0,1-2.12.81c-.16,0-.24-.14-.35-.22a4,4,0,0,1-1.3-1.37,9.11,9.11,0,0,1-1.22-3,3.39,3.39,0,0,1,.82-2.87c.24-.2.42-.51.67-.7.11,0,.06.1.07.17A2.13,2.13,0,0,0,302.83,22.79Z"/><path class="cls-7" d="M312.42,35c1.17-.49,2.07-.86,3.19-1.31,1.27-.51,2.56-1,3.85-1.42a1.26,1.26,0,0,1,.66,0c.22.59.57,1.12.77,1.76a17.27,17.27,0,0,0-2.51,1.78,1.13,1.13,0,0,1-1.3.33c-.91-.26-1.82-.47-2.72-.76C314,35.23,312.59,35,312.42,35Z"/><path class="cls-9" d="M314.53,6.8a2.25,2.25,0,0,1-.6,2,12.16,12.16,0,0,1-4.39,1.6.61.61,0,0,1-.31,0,3.81,3.81,0,0,0,.29-1.52,3.54,3.54,0,0,0-.5.93,1.84,1.84,0,0,1-.72.82s-.05,0-.07,0a.91.91,0,0,1-.09-.68,1.88,1.88,0,0,0,.36-.7.4.4,0,0,0-.25-.52.78.78,0,0,0-.52,0,.76.76,0,0,0-.47,1c0,.12.1.25.23.26s.28.21.31.43c0,0,0,.09,0,.14a1.08,1.08,0,0,1-.64-.48,11.4,11.4,0,0,0-.73-1.33c-.14-.19-.1-.29.1-.39a4.86,4.86,0,0,1,1.5-.32c.8-.11,1.6-.24,2.4-.37s1.82-.27,2.72-.48C313.57,7.09,314.29,6.83,314.53,6.8Z"/><path class="cls-8" d="M322.89,63a7,7,0,0,0,.12-2.7s0-.05,0-.07-.07-.35-.26-.33-.14.2-.17.34a5.26,5.26,0,0,1-.37,2.74c0,.09-.06.09-.11.1a15.77,15.77,0,0,1-1.69.09c-.12,0-.18-.05-.23-.18A9.11,9.11,0,0,1,319.7,61a4.55,4.55,0,0,1,.09-.67c0-.48-.21-.36-.38-.26a4.3,4.3,0,0,0,.06,3l-.59-.06a4.48,4.48,0,0,0-1-.06c-.15,0-.42,0-.44-.15-.16-1.49,1.84-3.74,3.6-3.65a3.3,3.3,0,0,1,1.62.23,3,3,0,0,1,1.61,1.88c.28,1-.25,1.64-.67,1.64C323.37,62.91,323.14,62.95,322.89,63Z"/><path class="cls-10" d="M321.63,35.34l-.09.11c-.58.58-2.46,2.4-2.83,2.72s-.63.12-.93,0l-4.71-1.35a15,15,0,0,0-2.21-.47.81.81,0,0,1-.24-.07.35.35,0,0,1-.2-.26c0-.09.12-.09.18-.13l.21-.12c.29-.18.58-.39.91-.25s5.73,1.29,6.07,1.45c.06,0,.11,0,.16,0,.92-.71,1.84-1.42,2.73-2.19a1.62,1.62,0,0,0,.26-.24c.1-.13.15-.1.22,0s.25.43.38.64Z"/><path class="cls-8" d="M301.17,22.92c-.18-.33-.37-.64-.57-.93a2.35,2.35,0,0,1-.25-.85c0-.63.16-1.24.22-1.86a12.84,12.84,0,0,1,.67-3.15,13.68,13.68,0,0,1,3.09-.63A11,11,0,0,1,303,17.28a.55.55,0,0,0-.15.25c-.52,1.6-1,3.22-1.42,4.86A1.21,1.21,0,0,1,301.17,22.92Z"/><path class="cls-10" d="M308.22,35.34c.07,0,0,.21,0,.32a.44.44,0,0,1-.31.27c-.9.33-1.81.63-2.7,1-.7.29-1.43.44-2.14.69a1.54,1.54,0,0,1-.84-.07c0-.15.61-1,.87-1.26C304,36.2,307.08,35.19,308.22,35.34Z"/><path class="cls-11" d="M309.63,40.59a2.21,2.21,0,0,1-1.24.82c-.75.16-1.37-.31-1.63-1.2a4.25,4.25,0,0,1-.11-1.4.55.55,0,0,0,.4.41.79.79,0,0,0,.51-.05c.05,0,.12-.06.11-.13s-.09-.07-.14-.06l-.42,0c-.12,0-.25,0-.27-.2s.12-.17.23-.21.44.07.7,0c-.13-.1-.1-.2-.06-.33a1.14,1.14,0,0,1,.63-.72c.06.17,0,.34,0,.55a7.54,7.54,0,0,1,.36-1.13,1.64,1.64,0,0,1,0,.6,1.32,1.32,0,0,0,0,.57c.13-.05.1-.2.16-.28.31.39.41.55.3.71.19.26.46-.05.69.13-.13.18-.31.14-.46.17h-.15c-.06,0-.16-.05-.18,0s.1.09.15.13a.2.2,0,0,1,0,.09c0,.37-.31,1-.65.93a.39.39,0,0,0,.3,0,.24.24,0,0,1,.33.12C309.31,40.38,309.53,40.4,309.63,40.59Z"/><path class="cls-12" d="M307.49,11.22a1.21,1.21,0,0,0,1.07-.1,1.63,1.63,0,0,1,.74-.11,11,11,0,0,0,4.46-1.42l.56-.3a2.78,2.78,0,0,1-.1.68,2.55,2.55,0,0,1-.52.37,16.92,16.92,0,0,1-3.36,1.42,8.5,8.5,0,0,1-2.4.21C307.74,12,307.52,11.4,307.49,11.22Z"/><path class="cls-7" d="M307.51,34.8a18.38,18.38,0,0,0-4,1l0-.05.46-.67a16.22,16.22,0,0,0,1.26-2c0-.08.06-.11.14-.06a20.12,20.12,0,0,1,2.16,1.73S307.5,34.77,307.51,34.8Z"/><path class="cls-11" d="M309.19,39.13V39a1.26,1.26,0,0,0,.58-.07c.12-.07.26-.15.22-.34s-.17-.17-.29-.19l-.21,0c-.09,0-.1-.1-.13-.17s0-.13.07-.17a2.47,2.47,0,0,0,.41-.42c.09-.13.2-.29.08-.46s-.27-.07-.4,0a1.65,1.65,0,0,0-.42.36s0,.14-.12.08a.18.18,0,0,1-.09-.22,1.5,1.5,0,0,0,0-.51c0-.09,0-.2-.11-.22s-.14,0-.19.12a1.42,1.42,0,0,0-.2.53s0,.12-.06.1a.41.41,0,0,0-.38.06c-.08,0-.09-.06-.11-.11a1.61,1.61,0,0,0-.42-.6,1,1,0,0,1,.35-.19,2.56,2.56,0,0,1,2.25.14.53.53,0,0,1,.25.28,3.17,3.17,0,0,1,0,2.36,4.22,4.22,0,0,1-.61,1.13c-.09,0-.07-.11-.06-.18a.68.68,0,0,0-.19-.56.64.64,0,0,1-.19-.43A.23.23,0,0,0,309.19,39.13Z"/><path class="cls-7" d="M299.75,41.7l-.17,1.22c0,.18-.23,1.91-.2,2.23s-.05.28-.23.17a.4.4,0,0,1-.17-.18,3.64,3.64,0,0,1-.29-1.5,2.71,2.71,0,0,1,.71-1.5C299.51,42,299.63,41.86,299.75,41.7Z"/><path class="cls-8" d="M300,49.38a25.45,25.45,0,0,0,.81,2.42C299.78,51.54,299.41,50.78,300,49.38Z"/><path class="cls-13" d="M307.68,30.22c.15,0,.45.23.46.4a2.22,2.22,0,0,1-.07,1,.51.51,0,0,1-.53.3.35.35,0,0,1-.39-.31C307.06,30.55,307.59,30.21,307.68,30.22Z"/><path class="cls-14" d="M306.69,38.67a3.19,3.19,0,0,1,.53-1.6c.09.21.08.5.24.63s0,.47.08.69c0,.06-.06,0-.1,0a1.92,1.92,0,0,0-.42,0A.36.36,0,0,0,306.69,38.67Z"/><path class="cls-15" d="M309.19,39.13c.17-.1.16.1.15.17a.49.49,0,0,0,.17.41.68.68,0,0,1,.19.69s0,.08,0,.1l-.1.09a.89.89,0,0,1-.49-.42c-.07-.11-.13-.11-.22-.06a.37.37,0,0,1-.4,0c.17-.15.47-.17.48-.4S309.29,39.38,309.19,39.13Z"/><path class="cls-16" d="M305.25,21.89a.47.47,0,0,1,.47.51,1,1,0,0,1-.25.78c-.07.06-.14.13-.21,0s-.32-.3-.56-.16c-.08,0-.16.22-.27,0s-.16-.18,0-.48A1.08,1.08,0,0,1,305.25,21.89Z"/><path class="cls-17" d="M312.42,6.6l-3.13.54a11.64,11.64,0,0,0-2.24.59,2.71,2.71,0,0,0-.66.43s-.07.19-.15,0,0-.15.08-.19a4.34,4.34,0,0,1,1.16-.65,26.45,26.45,0,0,1,4.45-.76A1,1,0,0,1,312.42,6.6Z"/><path class="cls-17" d="M311.69,11.92c0,.28-3.57,1.27-3.65.47.28-.06,2-.11,2.25-.14a6.61,6.61,0,0,0,1.35-.37S311.7,11.88,311.69,11.92Z"/><path class="cls-18" d="M309.27,38c-.06,0-.07-.09-.11-.13s0-.09,0-.12a2.79,2.79,0,0,1,.55-.44c.06,0,.1,0,.11.05S309.39,38,309.27,38Z"/><path class="cls-19" d="M307.42,37a1.14,1.14,0,0,1,.4.55c0,.07,0,.1-.06.14s-.09,0-.12,0A1.49,1.49,0,0,1,307.42,37Z"/><path class="cls-20" d="M308,9.35c-.12.09-.22.15-.33.06s0-.1,0-.13S307.93,9.32,308,9.35Z"/><path class="cls-6" d="M320,41.34c.17-.08.26,0,.36.13a2,2,0,0,1,.64,2.18c-.19.53-.39,1.05-.62,1.57a2.12,2.12,0,0,0-.17.6c0,.24,0,.28.21.2l.21-.11a1,1,0,0,1,.92,0c.18.09.24,0,.33-.18.41-.9.68-1.88,1.09-2.79a.76.76,0,0,1,.08-.15,1.58,1.58,0,0,0,.09-1.6c-.11-.29-.24-.57-.37-.85a.62.62,0,0,0-.12-.17,1.67,1.67,0,0,1-.21-1.59c.05-.1.11-.17.21-.17s.18.09.21.2c.08.3.26.56.35.85s.17.23.26.34a5.5,5.5,0,0,1,.8,1.8,1.12,1.12,0,0,1-.21,1.15,9.36,9.36,0,0,0-.64,1.24,5.7,5.7,0,0,0-.63,1.5c-.08.42-.34.76-.45,1.17a8.25,8.25,0,0,0-.13.91.94.94,0,0,0,.43.84c.19.17.44.26.55.54a1.13,1.13,0,0,1,.1.65,2.52,2.52,0,0,1-1.11,1.74,1,1,0,0,1-.84.23c-.63-.08-1.88-1.77-2-2.45a5,5,0,0,1,0-1.54,15.49,15.49,0,0,1,.8-3.31,10.52,10.52,0,0,0,.24-1.15.39.39,0,0,0,0-.26,1.38,1.38,0,0,1-.14-.77A2.52,2.52,0,0,0,320,41.34Z"/><path class="cls-6" d="M308,19.21c0,.15,0,.29,0,.46-.1-.08-.22,0-.31-.27a3.33,3.33,0,0,1,.61-2.15,1.77,1.77,0,0,1,2-1,2.18,2.18,0,0,1,1.24,1.14,7.47,7.47,0,0,1,.07,3.09.58.58,0,0,1-.32-.48c.1-1.36,0-2.91-1.43-3.1C308.58,16.77,307.95,19.27,308,19.21Z"/><path class="cls-6" d="M303.69,20.1c0,.05-.08.23-.14.18s-.15-.26-.05-1c.31-2.24,2.35-3.2,2.93-1.89.21.47-.33,2.53-.54,2.36-.14-.75.61-2-.25-2.28-1.58,0-1.61,1.15-1.88,2.06A1.93,1.93,0,0,0,303.69,20.1Z"/><path class="cls-9" d="M307.92,19.21c.15-.8.88-2.08,1.49-2.24a1.3,1.3,0,0,1,1.53.66,6.53,6.53,0,0,1,.3,2.41C311.41,20,308.23,22,307.92,19.21Z"/><path class="cls-9" d="M303.72,19.79c-.13-1.09.92-2.91,2-2.32.48.27.5.58.2,2.28C305.78,20.37,303.92,21.52,303.72,19.79Z"/><path class="cls-6" d="M311.75,23.75c0,.12-.08.18-.17.16s-.2-.08-.17-.24,0-.24.17-.22S311.69,23.66,311.75,23.75Z"/><path class="cls-6" d="M311,24.83a.11.11,0,0,1,.09.15c0,.1,0,.25-.16.25s-.11-.06-.1-.15S310.88,24.84,311,24.83Z"/><path class="cls-6" d="M311.7,26.65a.14.14,0,0,1-.14-.15c0-.09,0-.15.13-.15a.14.14,0,0,1,.14.15A.16.16,0,0,1,311.7,26.65Z"/><path class="cls-15" d="M308,40.89a1.18,1.18,0,0,0,.15-.61,1.45,1.45,0,0,1,0-.43s0-.08.07-.08.06,0,.06.08a1.91,1.91,0,0,1-.16,1.08c0,.07-.1.13-.18.1s-.09-.11-.09-.2a2.83,2.83,0,0,1,0-.53.17.17,0,0,0-.11-.22c-.11,0-.13,0-.17.1a1.37,1.37,0,0,1-.28.39c-.07.07-.16.14-.27.07s-.1-.2-.07-.32a1.11,1.11,0,0,1,.21-.45c.11-.16.29-.28.16-.57.27.15.28.64.66.57A10.23,10.23,0,0,0,308,40.89Z"/><path class="cls-15" d="M308.32,39.37a.45.45,0,0,1-.47-.44c0-.3.22-.58.44-.59.39,0,.5.08.5.38S308.59,39.37,308.32,39.37Z"/><path class="cls-19" d="M309.58,40.45l-.38-.47c-.05-.06,0-.1,0-.14s.07,0,.11,0A.63.63,0,0,1,309.58,40.45Z"/><path class="cls-8" d="M321.7,49.33a.64.64,0,0,1-.32,0,.43.43,0,0,1-.25-.42.86.86,0,0,1,.44-.62c.08,0,.05,0,0-.06s-.12-.07-.2-.06-.69-.11-.61-.16a3,3,0,0,1,.59-.18.14.14,0,0,0,.07-.24c-.12-.11-.08-.19-.05-.32s.07-.28-.06-.37a.91.91,0,0,0-1,.09,2.12,2.12,0,0,0-.6,1.29,1.71,1.71,0,0,0,.14,1,4.17,4.17,0,0,0,1.1,1.38c.19.16.4.39.63.34a1.19,1.19,0,0,0,.7-.37,2.11,2.11,0,0,0,.46-1.46.18.18,0,0,0-.06-.15s-.25-.21-.34-.2S321.88,49.24,321.7,49.33Z"/><path class="cls-21" d="M321.56,49.1c-.18,0-.19-.08-.2-.2s.24-.66.62-.46c.14.07.1.25,0,.37S321.72,49.12,321.56,49.1Z"/><path class="cls-19" d="M307.14,40.5a1.12,1.12,0,0,1,.3-.71s.06-.06.1,0a.13.13,0,0,1,0,.15A1.62,1.62,0,0,1,307.14,40.5Z"/><path class="cls-22" d="M308.42,38.53c.1,0,.24,0,.21.22s-.18.39-.34.36-.23-.05-.22-.23A.34.34,0,0,1,308.42,38.53Z"/><path class="cls-6" d="M322.3,49.32c-.05-.23-.24-.3-.4-.17a.32.32,0,0,0-.13.17c-.05.12,0,.2.07.3a.29.29,0,0,0,.33,0C322.23,49.56,322.33,49.45,322.3,49.32Zm-.28.25a.19.19,0,0,1-.14-.06.18.18,0,0,1,.07-.25c.08-.06.21-.06.24.05A.21.21,0,0,1,322,49.57Z"/><path class="cls-6" d="M322.87,49.06c-.07-.28-.3-.37-.5-.21a.39.39,0,0,0-.17.21c-.07.15,0,.24.08.37a.35.35,0,0,0,.41,0C322.78,49.35,322.91,49.22,322.87,49.06Zm-.35.3a.23.23,0,0,1-.17-.07.22.22,0,0,1,.09-.31c.1-.08.26-.08.29.06A.27.27,0,0,1,322.53,49.37Z"/></g><g id="Auge_R"><ellipse class="cls-23" cx="304.56" cy="18.93" rx="0.96" ry="1.11"/><ellipse class="cls-24" cx="304.45" cy="18.56" rx="0.38" ry="0.44"/></g><g id="Auge_L"><ellipse class="cls-23" cx="308.81" cy="18.55" rx="0.96" ry="1.11"/><ellipse class="cls-24" cx="308.69" cy="18.15" rx="0.38" ry="0.44"/></g></svg>